<?xml version="1.0" standalone="no"?>
<!DOCTYPE svg PUBLIC "-//W3C//DTD SVG 1.1//EN" "http://www.w3.org/Graphics/SVG/1.1/DTD/svg11.dtd" >
<svg xmlns="http://www.w3.org/2000/svg" xmlns:xlink="http://www.w3.org/1999/xlink" version="1.1">
<metadata>
Created by FontForge 20160407 at Mon May 23 10:44:09 2016
 By Jimmy Wärting
Moon Flower Bold(c) (Denise Bentulan). 2013. All Rights Reserved
</metadata>
<defs>
<font id="MoonFlowerBold" horiz-adv-x="1014" >
  <font-face 
    font-family="Moon Flower Bold"
    font-weight="400"
    font-stretch="normal"
    units-per-em="2048"
    panose-1="2 0 5 0 0 0 0 0 0 0"
    ascent="1638"
    descent="-410"
    x-height="1228"
    cap-height="1380"
    bbox="-342 -440 2098 1736"
    underline-thickness="150"
    underline-position="-292"
    unicode-range="U+0020-F002"
  />
<missing-glyph horiz-adv-x="1024" 
d="M100 -20v1474h874v-1474h-874zM200 70h674v1294h-674v-1294zM325 1155q39 36 69 52q59 34 126 34q103 0 166 -53.5t63 -141.5q0 -52 -24 -104.5t-90 -134.5q-62 -79 -96.5 -128.5t-34.5 -91.5q0 -36 30 -153h-82q-41 114 -41 168q0 80 81.5 222t81.5 213q0 50 -26.5 76.5
t-72.5 26.5q-30 0 -55 -13q-24 -14 -95 -74v102zM394 346l58 59q19 17 39 17q21 0 41 -19l57 -61q14 -16 14 -31q0 -17 -15 -34l-56 -62q-22 -22 -41 -22q-24 0 -40 19l-62 71q-11 14 -11 29q0 16 16 34z" />
    <glyph glyph-name=".notdef" horiz-adv-x="1024" 
d="M100 -20v1474h874v-1474h-874zM200 70h674v1294h-674v-1294zM325 1155q39 36 69 52q59 34 126 34q103 0 166 -53.5t63 -141.5q0 -52 -24 -104.5t-90 -134.5q-62 -79 -96.5 -128.5t-34.5 -91.5q0 -36 30 -153h-82q-41 114 -41 168q0 80 81.5 222t81.5 213q0 50 -26.5 76.5
t-72.5 26.5q-30 0 -55 -13q-24 -14 -95 -74v102zM394 346l58 59q19 17 39 17q21 0 41 -19l57 -61q14 -16 14 -31q0 -17 -15 -34l-56 -62q-22 -22 -41 -22q-24 0 -40 19l-62 71q-11 14 -11 29q0 16 16 34z" />
    <glyph glyph-name=".null" horiz-adv-x="0" 
 />
    <glyph glyph-name="nonmarkingreturn" horiz-adv-x="508" 
 />
    <glyph glyph-name="space" unicode=" " horiz-adv-x="508" 
 />
    <glyph glyph-name="space" unicode="&#xa0;" horiz-adv-x="508" 
 />
    <glyph glyph-name="exclam" unicode="!" horiz-adv-x="445" 
d="M224 1454q21 0 42 -33l-5 -23q76 -442 76 -692q0 -82 4 -425l-28 -19h-25q-23 6 -37 37q-4 292 -4 430l-4 53q4 7 4 12q0 111 -76 615q0 45 53 45zM277 110q60 0 60 -49q-10 -67 -67 -67q-47 20 -47 56q0 34 54 60z" />
    <glyph glyph-name="quotedbl" unicode="&#x22;" horiz-adv-x="672" 
d="M393 1546h17q57 0 57 -244v-36q0 -2 4 -23q0 -45 -53 -45q-45 0 -45 252q-1 0 -12 59q0 17 32 37zM272 1530q55 -7 55 -52q-11 -276 -65 -276h-12q-23 0 -38 30q17 80 25 230l-12 20v16q16 32 47 32z" />
    <glyph glyph-name="numbersign" unicode="#" horiz-adv-x="985" 
d="M609 1199h16q21 0 41 -31v-49q0 -31 -14 -172h-25q80 12 150 12h6l28 5q34 -10 47 -38v-15q0 -13 -35 -40q-18 0 -46 8h-12q-123 0 -123 -4q0 -11 -48 -288h-28q118 28 155 28h16q21 0 41 -31v-13q0 -16 -33 -36h-18q-149 -20 -149 -21q-48 -268 -48 -379v-20
q0 -43 -39 -60h-22q-23 6 -39 41q10 16 10 23v16q0 118 43 352q-133 -31 -133 -21q-32 -222 -32 -309q8 -25 8 -37q-12 -33 -37 -33h-26q-35 15 -35 48q0 81 26 304h26q-83 -16 -113 -16l-23 31v13q0 38 122 50q2 8 43 290h23q-89 -20 -149 -20q-23 29 -23 48q0 16 35 38
l27 -6q42 7 95 19q16 281 68 281h19q38 -19 38 -72q-24 0 -33 -220q-3 0 -3 28h-24q167 31 176 34q18 116 18 182v44q0 16 33 36zM360 535h-26q169 38 163 32q27 126 51 287l-146 -24q-40 -289 -42 -295z" />
    <glyph glyph-name="dollar" unicode="$" horiz-adv-x="766" 
d="M286 1474h23q62 -26 62 -186h-23l28 4h17q55 0 86 -46v-13q0 -17 -40 -40l-55 15h-10q-3 0 -3 -26q-103 0 -137 -234v-70q0 -181 116 -211q18 -7 148 -17q202 -89 202 -238q-20 -123 -71 -179q-65 -70 -131 -112q0 -48 9 -362q-29 -26 -48 -26q-30 0 -49 38l-8 306
q-64 -21 -85 -21h-23q-41 0 -68 42v18q0 18 33 34h15q34 -9 31 -9q100 21 100 57q23 0 47 7l6 -3q87 51 127 136q18 64 18 83q-29 158 -267 158q-185 63 -185 202q-13 25 -14 102v48q0 203 136 326v-2q0 111 -23 178q0 20 36 41z" />
    <glyph glyph-name="percent" unicode="%" horiz-adv-x="999" 
d="M677 1308q62 0 62 -48q0 -24 -177 -565q-107 -373 -107 -487q-4 0 -4 20q4 -8 4 -17q-8 -47 -41 -47h-19q-34 17 -34 40q6 178 189 749q99 278 99 336zM289 1024q118 -21 118 -112q0 -66 -98 -106q-23 -10 -63 -10h-4q-105 0 -105 104q0 69 78 121l30 -4q13 7 44 7z
M252 924h-33l13 -7q-5 -14 -5 -21q0 -20 7 -20h10q73 8 73 41q-10 27 -35 27q-3 0 -30 -20zM718 528q111 0 177 -128v-38q-34 -126 -133 -126h-20q-85 0 -116 79q-9 31 -9 53v28q0 32 -4 24q-4 0 -4 32v18q51 58 109 58zM735 448q0 -4 8 -4l-8 16v-20q-32 -25 -32 -59
q7 -65 31 -65h20q51 13 51 52v4q0 54 -94 76h24z" />
    <glyph glyph-name="ampersand" unicode="&#x26;" horiz-adv-x="760" 
d="M376 1142q131 -18 131 -116v-12q0 -52 -128 -233v5q55 -113 165 -256h-33q21 196 79 196h12q21 0 43 -35l-27 -58q-27 -148 -27 -174q149 -197 172 -237v-8q0 -16 -33 -36q-47 0 -93 77q-18 18 -73 94q-47 -163 -182 -163q-121 0 -191 104q-26 58 -26 108q0 185 113 383
q-113 164 -113 221v12q0 90 148 119q21 9 63 9zM255 1010q0 -51 89 -164h-25q98 145 98 168v3q-6 45 -38 45q-124 -12 -124 -52zM328 692q-73 -150 -73 -298q0 -111 129 -128q76 0 112 184q-83 101 -168 242z" />
    <glyph glyph-name="quotesingle" unicode="'" horiz-adv-x="346" 
d="M207 1387h20q22 0 42 -33q-45 -203 -81 -276l-22 -11h-15q-21 0 -42 34q38 126 71 269z" />
    <glyph glyph-name="parenleft" unicode="(" horiz-adv-x="431" 
d="M240 1433h21q24 0 41 -42v-9q0 -17 -33 -97q-63 -240 -63 -505q0 -278 123 -807q28 -86 129 -264v-12q-11 -40 -36 -49q-52 0 -149 217q-75 195 -145 692q-12 197 -12 229q0 351 98 618z" />
    <glyph glyph-name="parenright" unicode=")" horiz-adv-x="451" 
d="M65 1412h18q26 0 63 -89q73 -111 122 -326q48 -228 48 -407v-72q0 -483 -125 -781l-39 -12q-38 19 -38 37v14q112 312 112 707v107q0 251 -91 551l-101 211v20q0 17 31 40z" />
    <glyph glyph-name="asterisk" unicode="*" horiz-adv-x="766" 
d="M332 1417h18q39 0 51 -56l9 16h36q23 0 37 -28v-11q-36 -79 -36 -70q23 8 104 25h11q23 0 37 -28v-16q0 -27 -148 -66v10q0 4 140 -133v-23q0 -17 -30 -32h-11q-31 0 -115 91l28 -21v44q20 -76 20 -93q-12 -33 -37 -33h-16q-29 0 -60 124h37q-25 -116 -69 -116h-4
q-21 0 -42 33l31 115h33q-58 -24 -70 -24q-21 0 -41 31q0 51 76 68v-17q-60 65 -60 90v4q0 16 33 36h28l7 -7v-55q-28 94 -28 119z" />
    <glyph glyph-name="plus" unicode="+" horiz-adv-x="821" 
d="M377 1036q43 0 48 -153q123 13 200 13h24q23 0 37 -28v-20q0 -17 -30 -32h-35q-79 0 -191 -13v13q0 -59 21 -228l-29 -20h-25q-44 0 -56 224h20q-11 0 -125 -20h-15q-23 0 -37 28v16q0 40 151 54q-3 68 -11 121q0 45 53 45z" />
    <glyph glyph-name="comma" unicode="," horiz-adv-x="493" 
d="M282 60q34 -15 40 -36q-30 -99 -64 -186q-27 -22 -51 -22q-36 13 -36 32v20q29 51 58 170q29 22 53 22z" />
    <glyph glyph-name="hyphen" unicode="-" horiz-adv-x="670" 
d="M397 750q136 -13 136 -48v-12q0 -16 -36 -38q-78 18 -113 18q-32 0 -193 -22l-20 29v21q0 39 148 47q0 5 78 5z" />
    <glyph glyph-name="hyphen" unicode="&#xad;" horiz-adv-x="670" 
d="M397 750q136 -13 136 -48v-12q0 -16 -36 -38q-78 18 -113 18q-32 0 -193 -22l-20 29v21q0 39 148 47q0 5 78 5z" />
    <glyph glyph-name="period" unicode="." horiz-adv-x="397" 
d="M205 118h22q21 0 41 -31v-27q-36 -46 -71 -46q-34 15 -39 34v18q23 41 47 52z" />
    <glyph glyph-name="slash" unicode="/" horiz-adv-x="569" 
d="M539 1256h22q21 0 41 -31v-19q-32 -38 -121 -268q-160 -314 -390 -936q-27 -22 -57 -22q-34 17 -34 48q33 66 241 610q158 330 266 593z" />
    <glyph glyph-name="zero" unicode="0" horiz-adv-x="732" 
d="M359 1351q98 0 188 -124q62 -137 62 -336q11 -52 20 -383q-4 -92 -4 -214q0 -194 -145 -261l-47 -5h-9q-66 0 -153 100q-128 173 -128 873q0 122 102 320q68 25 114 30zM233 998v-55q0 -438 75 -708q54 -111 120 -131h8q78 0 99 177v3q0 102 4 217q0 468 -63 672
q-58 98 -133 98q0 4 19 4q-73 -29 -73 -63q-56 -137 -56 -214z" />
    <glyph glyph-name="one" unicode="1" horiz-adv-x="575" 
d="M270 1464h22q107 0 137 -699q32 -416 32 -617v-132q-18 -36 -82 -36q0 15 -13 21l5 60v95q-43 1107 -99 1223l3 -15q-31 -19 -60 -89l-36 -7h-7q-21 0 -42 33q14 67 140 163z" />
    <glyph glyph-name="two" unicode="2" horiz-adv-x="670" 
d="M407 1416q145 0 206 -156l4 -31q0 -142 -113 -391q-87 -282 -143 -565q-12 -70 -46 -205h-29q196 28 238 28h16q21 0 41 -31v-17q0 -17 -30 -32h-27q-58 0 -280 -39l-25 34v17q0 21 76 367q100 452 193 639q39 121 39 190q0 72 -92 108q-8 0 -26 3q-164 -36 -164 -70
q-23 -24 -40 -70l-22 -11q-46 0 -60 33v23q57 112 144 143q95 29 140 33z" />
    <glyph glyph-name="three" unicode="3" horiz-adv-x="636" 
d="M163 1437h20q29 0 29 12l-24 -12q220 0 278 -135q6 -9 10 -49q-30 -271 -103 -357q-9 -17 -9 -7q95 0 171 -215q29 -85 29 -153q0 -333 -167 -450q-58 -57 -129 -65q-8 -5 -25 -5h-4q-21 0 -41 31v13q0 29 107 57q125 108 125 150q44 111 44 265v4q0 116 -84 254
q-37 38 -76 38q-8 -4 -25 -4q-34 15 -39 34v20q96 121 128 316q8 66 8 74q0 57 -103 97q-40 7 -64 7q-1 0 -65 -5l-24 32v17q0 16 33 36z" />
    <glyph glyph-name="four" unicode="4" horiz-adv-x="588" 
d="M246 1361q25 -27 25 -40q0 -44 -44 -525v-27q0 -20 6 -76h-21q60 8 102 8h67q0 172 -40 513q12 40 41 47h12q21 0 41 -31v-9q0 -13 10 4q-1 0 25 -523q17 -2 17 -29v-17l-11 -16q23 -233 39 -625l-42 -25q-52 18 -52 55v8q0 24 -8 24l8 -16q0 206 -34 560h-89
q-36 0 -100 -16h-12q-40 0 -49 164q0 57 44 528l-5 34q32 30 70 30z" />
    <glyph glyph-name="five" unicode="5" horiz-adv-x="643" 
d="M303 1382h4q48 0 65 -37v-20l-18 -27q-22 0 -63 4q-112 -12 -129 -15l40 -345h-15q218 0 328 -230q49 -134 49 -222q0 -329 -236 -471q-27 -25 -63 -25q-31 12 -47 40v12q0 16 33 36q25 0 24 1q135 81 176 228q23 68 23 191q0 95 -73 243q-93 121 -246 121q-44 0 -81 411
q-2 18 -12 32v29q0 16 33 36h26l14 -11q128 19 168 19z" />
    <glyph glyph-name="six" unicode="6" horiz-adv-x="691" 
d="M382 1307q21 0 41 -31v-21l-53 -44q-36 -46 -80 -169q-51 -170 -51 -183q6 4 51 4h8q119 0 236 -206q57 -173 57 -330q0 -124 -85 -240q-35 -32 -72 -32h-20q-140 0 -253 397q-16 104 -24 231q0 275 147 561q47 63 98 63zM227 678q0 -171 71 -369q81 -178 124 -178
q48 0 79 189q0 273 -115 403q-55 60 -104 60q-41 0 -55 -105z" />
    <glyph glyph-name="seven" unicode="7" horiz-adv-x="671" 
d="M115 1318q53 -2 53 4q-9 -4 59 -4h321q64 -5 64 -46q-133 -438 -240 -894l-88 -338q0 -40 -35 -46h-18q-23 0 -37 28v20q0 16 64 256q137 567 241 902q4 7 10 38h-308q-68 -8 -84 -8q-35 15 -35 48v4q0 16 33 36z" />
    <glyph glyph-name="eight" unicode="8" horiz-adv-x="643" 
d="M364 1318q98 0 137 -219v-25q0 -127 -153 -442q-27 -65 -27 -70v2q244 -267 244 -358v-16q0 -117 -195 -148q-129 0 -220 127q-27 47 -27 93v8q0 100 97 283q-93 136 -93 317q0 218 131 378q39 20 67 56q24 14 39 14zM389 1234q0 -11 -74 -50q-98 -137 -98 -314
q0 -144 63 -248h-37q0 -7 121 266q47 116 47 190q0 91 -52 156h30zM289 494q-76 -152 -76 -220v-8q0 -95 128 -140q8 0 28 -4q106 16 106 76q0 76 -211 296h25z" />
    <glyph glyph-name="nine" unicode="9" horiz-adv-x="670" 
d="M371 1362h5q86 -6 99 -48h-22l12 10h22q64 0 85 -938q3 0 13 -236h4l-5 13v-32q0 -26 4 -78q-13 -36 -37 -42h-16q-45 0 -45 297q-8 112 -23 579h35q-54 -163 -199 -163q-143 0 -165 206q-4 79 -8 105q0 166 127 292q52 35 114 35zM220 1041q13 -205 52 -205
q0 -16 34 -24q90 0 128 156q16 66 16 100l-11 158h-11q-32 48 -49 48h-4q-97 0 -140 -152q-7 -17 -15 -81z" />
    <glyph glyph-name="colon" unicode=":" horiz-adv-x="557" 
d="M313 989h19q56 -5 56 -52l-2 -4l4 -7q-21 -49 -63 -49h-15q-38 19 -38 52v16q0 15 39 44zM331 497q49 0 49 -48v-16q0 -16 -33 -36h-12q-40 0 -57 41v11q0 48 53 48z" />
    <glyph glyph-name="semicolon" unicode=";" horiz-adv-x="557" 
d="M282 944h5q48 -4 48 -32v-8q0 -56 -59 -64q-35 0 -51 32v20q0 52 57 52zM302 504q23 0 37 -28v-22q-18 -21 -63 -174l-23 -12h-23q-25 0 -38 35q51 182 76 201h34z" />
    <glyph glyph-name="semicolon" unicode="&#x37e;" horiz-adv-x="557" 
d="M282 944h5q48 -4 48 -32v-8q0 -56 -59 -64q-35 0 -51 32v20q0 52 57 52zM302 504q23 0 37 -28v-22q-18 -21 -63 -174l-23 -12h-23q-25 0 -38 35q51 182 76 201h34z" />
    <glyph glyph-name="less" unicode="&#x3c;" 
d="M639 1039h15q21 0 41 -31q0 -44 -52 -68q0 -7 -253 -237q-59 -73 -59 -66q97 -106 239 -191q166 -123 185 -150v-13q0 -16 -33 -36h-30l-388 290q-71 69 -71 97q31 77 210 230q156 155 196 175z" />
    <glyph glyph-name="equal" unicode="=" 
d="M188 835q31 0 93 -8q105 4 303 8q113 -4 251 -4l18 -27v-26l-24 -32q-157 9 -197 9q-263 -4 -380 -4q-97 0 -97 40v8q0 16 33 36zM827 571q78 0 78 -32v-28l-13 -25l-65 5q-51 0 -614 -24q-27 -8 -41 -8h-8q-21 0 -41 31v13q0 44 256 52z" />
    <glyph glyph-name="greater" unicode="&#x3e;" 
d="M346 1155h23q26 -9 45 -54q172 -148 375 -303l12 -23q0 -18 -101 -104q-113 -132 -320 -356h-24q-21 0 -41 31q0 31 117 149q179 213 253 279q-162 118 -354 290q-16 28 -16 68z" />
    <glyph glyph-name="question" unicode="?" horiz-adv-x="664" 
d="M331 1372q90 0 168 -76q61 -77 61 -144v-28q0 -205 -114 -392q-30 -62 -30 -199q8 -66 8 -105v-44q0 -33 -35 -48h-18q-33 0 -37 35q0 24 4 30q0 -1 -12 130q0 207 82 317q66 140 66 284q0 77 -70 136q-53 24 -77 24q-107 -29 -107 -92v-31l12 -16v-9q0 -33 -35 -48h-29
q-38 19 -38 52v56q0 116 181 168h20zM363 112h20q19 0 45 -35v-25q0 -52 -57 -52q-55 0 -61 60q4 24 53 52z" />
    <glyph glyph-name="at" unicode="@" horiz-adv-x="917" 
d="M457 1311h8q135 0 231 -180q53 -95 82 -322q4 -24 4 -66v-12q0 -102 -78 -116h-7q-47 0 -96 168h41q0 -248 -145 -248q-160 0 -185 307q0 220 122 283q43 14 67 14q38 0 77 -28q37 0 60 -145q55 -191 85 -259h-35q4 18 4 32v4q0 180 -90 384q-76 104 -133 104h-16
q-66 0 -149 -128q-46 -83 -50 -192q24 -321 51 -456q87 -224 236 -224q103 25 103 58q20 12 59 146l23 12h15q21 0 41 -31v-19q-33 -148 -97 -197q-82 -49 -144 -49q-224 0 -329 308q-48 359 -48 460q0 200 159 338q69 54 134 54zM402 855q0 -181 76 -232q5 0 22 -8
q52 0 52 172v23q-18 237 -11 237q-9 0 -45 12q-66 0 -90 -142q-4 -40 -4 -62z" />
    <glyph glyph-name="A" unicode="A" horiz-adv-x="739" 
d="M288 1385h10q72 -33 115 -156q112 -346 165 -882q35 -174 35 -310q-12 -30 -69 -30q-24 46 -56 335q-9 31 -38 251l-9 1q-190 -18 -190 -24v-156l-27 -366q9 -13 9 -30t-35 -38q-68 0 -68 65q31 422 31 506q-4 55 -4 112q2 289 48 612q23 110 83 110zM306 1282
q-51 -196 -51 -569q-4 0 -4 -77v15q97 27 193 27v-15q0 120 -132 573q-25 54 -6 46z" />
    <glyph glyph-name="B" unicode="B" horiz-adv-x="599" 
d="M274 1476q147 0 177 -279v-78q-20 -145 -135 -315q-4 -1 -17 -18v15q75 -28 130 -120q55 -82 74 -252q0 -213 -91 -363q-64 -70 -130 -86h-12q-81 0 -81 155q-48 689 -48 1060q-8 107 -25 212q83 69 158 69zM212 1374q31 -242 31 -705q16 -188 40 -606l-2 2q56 23 85 100
q47 132 47 262q-29 173 -46 173q-29 86 -109 132q-41 0 -65 40v22q131 147 168 320v61q-18 221 -87 221q-38 0 -62 -22z" />
    <glyph glyph-name="C" unicode="C" horiz-adv-x="636" 
d="M363 1376h31q94 -17 94 -72q0 -16 -33 -36h-37q-26 32 -38 32q-80 -28 -80 -48q-80 -152 -80 -412v-68q0 -177 48 -425q28 -179 75 -239q53 -46 89 -48q44 0 113 88h26q23 0 37 -28v-12q0 -46 -99 -109q-45 -19 -82 -19h-6q-69 8 -140 70q-77 61 -131 467q-20 87 -20 287
v24q7 414 142 516q67 32 91 32z" />
    <glyph glyph-name="D" unicode="D" horiz-adv-x="612" 
d="M123 1452h34q173 -57 263 -217q130 -264 130 -543v-20q0 -400 -295 -657q-46 -15 -62 -15q-34 0 -42 87l4 8q-11 88 -16 277h-7l8 -16v8q0 158 4 288zM218 1342v26q4 -451 16 -712q-4 -107 -4 -220v-48q0 -151 11 -273q51 44 128 169q91 200 91 376v40q0 247 -122 504
q-84 126 -120 138z" />
    <glyph glyph-name="E" unicode="E" horiz-adv-x="575" 
d="M319 1400l9 -5q-28 0 -28 6q178 -16 178 -50v-7q-13 -37 -47 -37l-116 12q-8 0 -51 -3l2 -28q0 -66 19 -509h4q29 0 50 4q94 -8 148 -8l23 -31v-17q0 -32 -41 -32q-36 0 -116 8q-53 -4 -67 -4v4q0 -282 27 -632q5 0 5 -3q125 7 160 7q31 -10 44 -36v-8q0 -16 -32 -36
q-159 -4 -191 -8q-75 0 -75 71q-28 382 -28 637v128q-20 352 -20 474q-12 60 -12 75l31 23h54q22 0 70 5z" />
    <glyph glyph-name="F" unicode="F" horiz-adv-x="561" 
d="M207 1377q163 -8 254 -8l18 -27q0 -53 -50 -53q-103 4 -201 4l19 -480v-3l2 -26q37 5 97 5h104q30 0 38 -51l-36 -29h-122q-75 0 -75 4v-44q0 -58 8 -480v-43l4 -24q0 -25 -2 -25l2 -19v-45q0 -16 -30 -32h-19q-22 0 -41 31l-15 825l-17 40l8 -16q-16 317 -16 473
q32 23 70 23z" />
    <glyph glyph-name="G" unicode="G" horiz-adv-x="732" 
d="M360 1332h9q90 0 145 -70v-14q0 -16 -33 -36q-25 0 -74 31q-18 9 -42 9h-12q-99 -24 -99 -664q0 -306 71 -465q19 -41 74 -63h7q50 10 50 60q16 0 40 221v194v1q42 0 42 -6q-210 16 -210 45l-4 20v5q0 17 30 32h29q14 -11 175 -25q28 -28 28 -95v-100q0 -24 -4 -61
q4 -7 4 -16q-29 -335 -92 -335q0 -4 -82 -20h-22q-78 18 -135 87q-91 172 -91 525q0 671 149 735z" />
    <glyph glyph-name="H" unicode="H" horiz-adv-x="599" 
d="M431 1499h25q34 -17 34 -40q0 -189 -8 -292l8 -411q8 -14 8 -27q-10 -30 -7 -30q7 -166 11 -633q-4 -22 -4 -88l-28 -19h-31l-31 24q0 52 4 77q-4 546 -11 634q-159 -3 -162 -4q7 -61 7 -135q0 -160 -4 -280q4 -68 4 -274q-30 -18 -49 -18q-22 0 -41 32v40q0 163 -4 220
q4 98 4 240v60q-12 195 -12 272q12 446 12 566q-4 16 -4 39l31 23h26q37 -22 37 -52q0 -75 -12 -600v-68l-7 14q7 2 172 5q-3 126 -3 189v184q0 5 -6 15l6 13q4 188 4 301z" />
    <glyph glyph-name="I" unicode="I" horiz-adv-x="424" 
d="M230 1380h16q53 0 53 -232v-52q0 -79 -24 -405q0 -13 4 -29q-4 -211 -4 -334v-260q0 -6 8 -39q-8 -49 -41 -49h-16q-41 0 -41 128q0 695 24 957v111q0 92 -12 167q0 17 33 37z" />
    <glyph glyph-name="J" unicode="J" horiz-adv-x="486" 
d="M298 1344q29 0 59 -18q0 -13 -4 -62q12 -148 12 -704v-28q0 -39 8 -256q-16 -296 -145 -296h-20q-129 32 -129 78q-20 10 -24 205q27 25 50 25q40 -12 40 -48q0 -168 43 -168q21 -12 32 -12h4q45 0 59 209v19q-8 210 -8 252v48q0 221 -4 571q-8 54 -8 117v28q0 14 35 40z
" />
    <glyph glyph-name="K" unicode="K" horiz-adv-x="629" 
d="M411 1444q51 0 63 -33v-23q0 -178 -80 -472q-16 -77 -62 -248q47 0 193 -395q34 -101 57 -248v-13q0 -17 -30 -32h-26q-38 19 -38 52v4q0 24 -1 24q-46 216 -106 342q-82 194 -86 194l36 -597l-29 -19h-25q-19 0 -45 35v9q0 15 8 28q-37 646 -68 930q-56 319 -56 406v12
q0 16 33 36h16q21 0 41 -31v-24q12 -114 72 -539q12 -139 12 -142h-41q135 523 135 640v40q0 3 -5 40z" />
    <glyph glyph-name="L" unicode="L" horiz-adv-x="575" 
d="M190 1456h4q22 0 41 -31q0 -45 4 -45l-8 16q28 -440 28 -739q12 -97 12 -269v-328h191q23 0 37 -28v-16q0 -36 -93 -36h-184q-21 0 -41 31v29q0 48 2 48l-2 27v293q-16 526 -32 875l-12 135q12 38 53 38z" />
    <glyph glyph-name="M" unicode="M" horiz-adv-x="725" 
d="M149 1408q47 -15 278 -643h-33q0 26 204 618h48l18 -35l1 -44q-11 -358 -11 -605q0 -95 36 -698l-43 -21q-54 0 -78 672v469h33q-142 -441 -173 -466q-64 4 -249 525h31v8l59 -1163l-41 -22q-56 0 -56 44q-35 1045 -71 1337z" />
    <glyph glyph-name="N" unicode="N" horiz-adv-x="684" 
d="M172 1401q42 0 206 -562q23 -128 188 -631h-33v14q-23 486 -23 546q0 18 5 122q-1 11 -1 48q8 79 8 125v285q5 42 54 42l42 -22q-12 -237 -12 -351v-113q0 -348 22 -909l-40 -20q-50 0 -315 902l-105 358l37 -60l3 58q7 -83 7 -132l1 -34q-8 -222 -8 -311q0 -447 36 -758
h-50q-47 0 -47 42q-23 349 -23 625v694q7 42 48 42z" />
    <glyph glyph-name="O" unicode="O" horiz-adv-x="622" 
d="M329 1392q136 0 205 -558q4 -53 4 -134v-16q0 -16 -3 -32q3 -4 3 -32v-4q0 -28 -3 -32q3 -16 3 -20q0 -430 -126 -536q-51 -20 -71 -20h-32q-163 39 -201 391l-12 164q0 568 145 793q48 36 88 36zM186 576q0 -223 59 -390q49 -98 76 -98h4q60 0 80 97q43 102 43 439v80
q0 233 -83 535q-27 60 -40 69q-22 -8 -28 -26q-111 -235 -111 -706z" />
    <glyph glyph-name="P" unicode="P" horiz-adv-x="555" 
d="M204 1424q213 0 288 -187q13 -41 17 -96q0 -253 -89 -555q-46 -79 -132 -122q-31 -1 -31 8v-4q0 -52 4 -88q-4 -36 -4 -40q12 -226 12 -244q12 -2 12 -48v-15q-16 -42 -43 -53h-14q-21 0 -41 31v33v24q-3 17 -8 83q0 25 3 25l-11 148q4 41 4 60q-4 73 -4 81q-16 8 -16 33
q9 34 14 34q-6 85 -6 108l19 708q-7 0 -7 28v12q0 16 33 36zM268 1339l-19 -699q4 -84 4 -105l-10 5q27 0 67 42q63 40 105 479q4 72 4 95q0 95 -108 171q-29 10 -43 12z" />
    <glyph glyph-name="Q" unicode="Q" horiz-adv-x="692" 
d="M352 1420q97 0 141 -236q68 -221 68 -600v-204q0 -67 -23 -177q107 -165 107 -187v-4q0 -17 -30 -32h-28q-41 29 -104 152h26q-27 -56 -93 -56q-197 0 -245 402q-20 188 -20 466q0 361 93 436q76 40 108 40zM241 944q0 -652 112 -749q20 -39 63 -39q12 0 25 38
q-114 171 -114 186v4q0 16 33 36h25q30 -21 106 -144h-29q9 65 9 88v244q0 402 -106 704q6 0 -20 24h11q-56 -17 -61 -28q-54 -72 -54 -364z" />
    <glyph glyph-name="R" unicode="R" horiz-adv-x="595" 
d="M155 1496h32q12 -16 66 -25q87 -35 139 -124q70 -169 70 -251v-40q0 -270 -129 -371q152 -36 181 -424v-153q0 -34 5 -109l-29 -19h-31l-30 23q-5 89 -5 129v144q0 146 -88 297q-54 51 -91 51h22q3 -66 3 -108v-152q8 -198 8 -224v-12q-16 -32 -49 -32q-19 0 -46 31l5 34
q-8 168 -8 223v220q-10 0 -24 33v19q16 32 19 32q-19 528 -52 784zM224 1400q22 -271 40 -662q108 73 108 298v56q0 101 -84 257q-56 51 -79 51h15z" />
    <glyph glyph-name="S" unicode="S" horiz-adv-x="575" 
d="M385 1371l23 -29v-13q0 -14 -36 -39h-49q-89 0 -120 -65q-31 -84 -31 -188q0 -63 55 -208q18 -36 212 -212q105 -150 105 -295q0 -114 -49 -223q-26 -59 -132 -98q-40 -21 -68 -21q-38 0 -53 32v14q0 29 62 35q114 43 114 89q36 72 36 183q0 145 -130 283
q-108 82 -162 159q-39 42 -76 215q0 21 -4 53q0 133 50 237q63 91 253 91z" />
    <glyph glyph-name="T" unicode="T" horiz-adv-x="616" 
d="M542 1324l26 -30v-16q0 -37 -137 -37h-112q12 0 13 3l8 -181q-4 -25 -4 -27q36 -605 36 -863q4 -7 4 -20q-4 -6 -4 -4l5 -27q-14 -32 -38 -32h-16q-17 0 -41 28q0 14 4 45q0 85 -36 863q0 126 -7 220l9 -5h-4l-140 -12q-26 28 -26 52q0 17 38 36q35 -9 34 -9q77 7 109 7
h164q49 0 115 9z" />
    <glyph glyph-name="U" unicode="U" horiz-adv-x="698" 
d="M217 1428h24q39 -19 39 -52v-20q35 -650 87 -1046q33 -250 78 -250q33 14 33 56q0 157 -33 792q5 116 5 224v95l-5 27l4 9q-3 49 -13 117l33 24h22q40 0 49 -132q0 -28 -3 -28q3 -40 3 -68v-129l-4 -24q0 17 5 17q-5 -68 -5 -88v-16q32 -696 32 -821q-13 -135 -129 -135
q-132 0 -169 402q-44 343 -85 1022z" />
    <glyph glyph-name="V" unicode="V" horiz-adv-x="633" 
d="M478 1396h16q25 0 37 -34l-120 -1075q-16 -303 -42 -303l-8 -4h-19q-42 0 -69 246q-104 661 -104 1056l-12 52q0 18 33 38h16q61 0 61 -331q51 -571 93 -817h-43q0 63 112 1017q9 155 49 155z" />
    <glyph glyph-name="W" unicode="W" horiz-adv-x="846" 
d="M699 1336h21q23 0 37 -29q-44 -874 -56 -1205q-16 -90 -53 -90h-8q-41 0 -100 216q-105 339 -105 356h45q-31 -445 -31 -585l-28 -19h-21q-39 0 -57 154q-88 413 -173 1054q-2 0 -19 74q0 18 33 38h24q41 0 69 -246q72 -473 96 -603l37 -199h-42q32 511 48 553l37 7
q46 0 64 -174q19 -95 103 -370l29 -100l-34 -17q24 707 57 1167z" />
    <glyph glyph-name="X" unicode="X" horiz-adv-x="835" 
d="M560 1396q23 0 37 -28v-17q-40 -261 -95 -684q129 -249 214 -473l85 -170v-8q0 -16 -33 -36h-12q-54 0 -61 59q-60 105 -174 396q-6 1 -70 141h30q-12 -66 -88 -379q-24 -141 -57 -141h-20q-21 0 -42 33q133 537 133 571q-184 376 -284 645v16l31 23h18q35 0 124 -238
l161 -346q-28 0 10 326q32 241 53 310h40z" />
    <glyph glyph-name="Y" unicode="Y" horiz-adv-x="650" 
d="M525 1332h17q21 0 41 -31v-10q-32 -287 -68 -559l4 -23v-33q-15 0 -44 -377q-12 -199 -30 -307l-24 -12h-23q-23 6 -37 37q44 532 64 689q-106 229 -278 461q-38 27 -38 57v8q0 16 33 36h30q28 -11 41 -52q159 -197 258 -408h-36q42 363 63 506z" />
    <glyph glyph-name="Z" unicode="Z" horiz-adv-x="725" 
d="M190 1228h41q0 -16 233 -24q95 -11 95 -56v-7q-89 -243 -213 -730q-87 -236 -87 -344q12 -3 83 -3q39 0 177 4q52 -6 52 8l-24 -12h15q21 0 41 -31v-17q0 -21 -48 -37q-38 9 -65 9q-57 0 -185 -4q-68 8 -126 8q-18 29 -18 40q0 101 93 393q24 68 132 484q48 134 70 213
q-24 5 -271 19q-28 30 -28 51q0 16 33 36z" />
    <glyph glyph-name="bracketleft" unicode="[" horiz-adv-x="664" 
d="M467 1325l25 -33v-16q-22 -51 -256 -67q0 2 -43 -11l43 -465q30 -245 60 -719q2 -7 -12 -7q297 -16 327 -16l21 -36q-2 -27 -41 -45l-27 5q-56 0 -306 12q-58 0 -72 407q-84 872 -84 894q7 56 244 73q0 4 121 24z" />
    <glyph glyph-name="backslash" unicode="\" horiz-adv-x="569" 
d="M30 1256h23q36 0 151 -269q189 -373 381 -873q41 -82 41 -98t-33 -36h-21q-33 2 -67 98q-182 451 -307 719q-71 133 -179 379q-5 0 -19 28v20q0 17 30 32z" />
    <glyph glyph-name="bracketright" unicode="]" horiz-adv-x="705" 
d="M189 1261h26q18 -16 9 -16q9 0 103 4q18 0 71 -4q21 4 39 4q84 -7 84 -57q-5 -47 -6 -47q10 -122 10 -236v-272q0 -265 36 -719q0 -24 -42 -42q-83 17 -160 25q-14 -4 -37 -4q-47 6 -47 47q12 33 37 33h52q76 0 103 -8v-25q-16 170 -32 689v280q0 28 -8 268v-12h21
q-31 0 -44 -4q-49 4 -84 4q-30 0 -114 -4q-55 10 -55 55q10 27 38 41z" />
    <glyph glyph-name="asciicircum" unicode="^" 
d="M544 1235q75 -62 235 -241q132 -176 164 -208q0 -43 -33 -51h-30q-46 38 -191 233q-166 175 -152 168q-103 -115 -188 -265q-73 -136 -109 -152h-14q-21 0 -41 31v37q35 28 50 67q115 199 257 367q23 14 52 14z" />
    <glyph glyph-name="underscore" unicode="_" horiz-adv-x="1177" 
d="M532 -60q420 -24 551 -24h16q23 0 37 -28v-21l-23 -31q-223 4 -583 24q-358 -4 -381 -8q-87 6 -87 40v8q0 16 33 36q38 0 52 -4q270 8 385 8z" />
    <glyph glyph-name="grave" unicode="`" horiz-adv-x="346" 
d="M88 1276h23q107 -75 220 -118q20 -20 20 -36q0 -22 -36 -40h-20q-124 40 -224 117q-23 18 -23 48q21 29 40 29z" />
    <glyph glyph-name="a" unicode="a" horiz-adv-x="739" 
d="M288 1385h10q72 -33 115 -156q112 -346 165 -882q35 -174 35 -310q-12 -30 -69 -30q-24 46 -56 335q-9 31 -38 251l-9 1q-190 -18 -190 -24v-156l-27 -366q9 -13 9 -30t-35 -38q-68 0 -68 65q31 422 31 506q-4 55 -4 112q2 289 48 612q23 110 83 110zM306 1282
q-51 -196 -51 -569q-4 0 -4 -77v15q97 27 193 27v-15q0 120 -132 573q-25 54 -6 46z" />
    <glyph glyph-name="b" unicode="b" horiz-adv-x="599" 
d="M274 1476q147 0 177 -279v-78q-20 -145 -135 -315q-4 -1 -17 -18v15q75 -28 130 -120q55 -82 74 -252q0 -213 -91 -363q-64 -70 -130 -86h-12q-81 0 -81 155q-48 689 -48 1060q-8 107 -25 212q83 69 158 69zM212 1374q31 -242 31 -705q16 -188 40 -606l-2 2q56 23 85 100
q47 132 47 262q-29 173 -46 173q-29 86 -109 132q-41 0 -65 40v22q131 147 168 320v61q-18 221 -87 221q-38 0 -62 -22z" />
    <glyph glyph-name="c" unicode="c" horiz-adv-x="636" 
d="M363 1376h31q94 -17 94 -72q0 -16 -33 -36h-37q-26 32 -38 32q-80 -28 -80 -48q-80 -152 -80 -412v-68q0 -177 48 -425q28 -179 75 -239q53 -46 89 -48q44 0 113 88h26q23 0 37 -28v-12q0 -46 -99 -109q-45 -19 -82 -19h-6q-69 8 -140 70q-77 61 -131 467q-20 87 -20 287
v24q7 414 142 516q67 32 91 32z" />
    <glyph glyph-name="d" unicode="d" horiz-adv-x="612" 
d="M123 1452h34q173 -57 263 -217q130 -264 130 -543v-20q0 -400 -295 -657q-46 -15 -62 -15q-34 0 -42 87l4 8q-11 88 -16 277h-7l8 -16v8q0 158 4 288zM218 1342v26q4 -451 16 -712q-4 -107 -4 -220v-48q0 -151 11 -273q51 44 128 169q91 200 91 376v40q0 247 -122 504
q-84 126 -120 138z" />
    <glyph glyph-name="e" unicode="e" horiz-adv-x="575" 
d="M319 1400l9 -5q-28 0 -28 6q178 -16 178 -50v-7q-13 -37 -47 -37l-116 12q-8 0 -51 -3l2 -28q0 -66 19 -509h4q29 0 50 4q94 -8 148 -8l23 -31v-17q0 -32 -41 -32q-36 0 -116 8q-53 -4 -67 -4v4q0 -282 27 -632q5 0 5 -3q125 7 160 7q31 -10 44 -36v-8q0 -16 -32 -36
q-159 -4 -191 -8q-75 0 -75 71q-28 382 -28 637v128q-20 352 -20 474q-12 60 -12 75l31 23h54q22 0 70 5z" />
    <glyph glyph-name="f" unicode="f" horiz-adv-x="561" 
d="M207 1377q163 -8 254 -8l18 -27q0 -53 -50 -53q-103 4 -201 4l19 -480v-3l2 -26q37 5 97 5h104q30 0 38 -51l-36 -29h-122q-75 0 -75 4v-44q0 -58 8 -480v-43l4 -24q0 -25 -2 -25l2 -19v-45q0 -16 -30 -32h-19q-22 0 -41 31l-15 825l-17 40l8 -16q-16 317 -16 473
q32 23 70 23z" />
    <glyph glyph-name="g" unicode="g" horiz-adv-x="732" 
d="M360 1332h9q90 0 145 -70v-14q0 -16 -33 -36q-25 0 -74 31q-18 9 -42 9h-12q-99 -24 -99 -664q0 -306 71 -465q19 -41 74 -63h7q50 10 50 60q16 0 40 221v194v1q42 0 42 -6q-210 16 -210 45l-4 20v5q0 17 30 32h29q14 -11 175 -25q28 -28 28 -95v-100q0 -24 -4 -61
q4 -7 4 -16q-29 -335 -92 -335q0 -4 -82 -20h-22q-78 18 -135 87q-91 172 -91 525q0 671 149 735z" />
    <glyph glyph-name="h" unicode="h" horiz-adv-x="599" 
d="M431 1499h25q34 -17 34 -40q0 -189 -8 -292l8 -411q8 -14 8 -27q-10 -30 -7 -30q7 -166 11 -633q-4 -22 -4 -88l-28 -19h-31l-31 24q0 52 4 77q-4 546 -11 634q-159 -3 -162 -4q7 -61 7 -135q0 -160 -4 -280q4 -68 4 -274q-30 -18 -49 -18q-22 0 -41 32v40q0 163 -4 220
q4 98 4 240v60q-12 195 -12 272q12 446 12 566q-4 16 -4 39l31 23h26q37 -22 37 -52q0 -75 -12 -600v-68l-7 14q7 2 172 5q-3 126 -3 189v184q0 5 -6 15l6 13q4 188 4 301z" />
    <glyph glyph-name="i" unicode="i" horiz-adv-x="424" 
d="M230 1380h16q53 0 53 -232v-52q0 -79 -24 -405q0 -13 4 -29q-4 -211 -4 -334v-260q0 -6 8 -39q-8 -49 -41 -49h-16q-41 0 -41 128q0 695 24 957v111q0 92 -12 167q0 17 33 37z" />
    <glyph glyph-name="j" unicode="j" horiz-adv-x="486" 
d="M298 1344q29 0 59 -18q0 -13 -4 -62q12 -148 12 -704v-28q0 -39 8 -256q-16 -296 -145 -296h-20q-129 32 -129 78q-20 10 -24 205q27 25 50 25q40 -12 40 -48q0 -168 43 -168q21 -12 32 -12h4q45 0 59 209v19q-8 210 -8 252v48q0 221 -4 571q-8 54 -8 117v28q0 14 35 40z
" />
    <glyph glyph-name="k" unicode="k" horiz-adv-x="629" 
d="M411 1444q51 0 63 -33v-23q0 -178 -80 -472q-16 -77 -62 -248q47 0 193 -395q34 -101 57 -248v-13q0 -17 -30 -32h-26q-38 19 -38 52v4q0 24 -1 24q-46 216 -106 342q-82 194 -86 194l36 -597l-29 -19h-25q-19 0 -45 35v9q0 15 8 28q-37 646 -68 930q-56 319 -56 406v12
q0 16 33 36h16q21 0 41 -31v-24q12 -114 72 -539q12 -139 12 -142h-41q135 523 135 640v40q0 3 -5 40z" />
    <glyph glyph-name="l" unicode="l" horiz-adv-x="575" 
d="M190 1456h4q22 0 41 -31q0 -45 4 -45l-8 16q28 -440 28 -739q12 -97 12 -269v-328h191q23 0 37 -28v-16q0 -36 -93 -36h-184q-21 0 -41 31v29q0 48 2 48l-2 27v293q-16 526 -32 875l-12 135q12 38 53 38z" />
    <glyph glyph-name="m" unicode="m" horiz-adv-x="725" 
d="M149 1408q47 -15 278 -643h-33q0 26 204 618h48l18 -35l1 -44q-11 -358 -11 -605q0 -95 36 -698l-43 -21q-54 0 -78 672v469h33q-142 -441 -173 -466q-64 4 -249 525h31v8l59 -1163l-41 -22q-56 0 -56 44q-35 1045 -71 1337z" />
    <glyph glyph-name="n" unicode="n" horiz-adv-x="684" 
d="M172 1401q42 0 206 -562q23 -128 188 -631h-33v14q-23 486 -23 546q0 18 5 122q-1 11 -1 48q8 79 8 125v285q5 42 54 42l42 -22q-12 -237 -12 -351v-113q0 -348 22 -909l-40 -20q-50 0 -315 902l-105 358l37 -60l3 58q7 -83 7 -132l1 -34q-8 -222 -8 -311q0 -447 36 -758
h-50q-47 0 -47 42q-23 349 -23 625v694q7 42 48 42z" />
    <glyph glyph-name="o" unicode="o" horiz-adv-x="622" 
d="M329 1392q136 0 205 -558q4 -53 4 -134v-16q0 -16 -3 -32q3 -4 3 -32v-4q0 -28 -3 -32q3 -16 3 -20q0 -430 -126 -536q-51 -20 -71 -20h-32q-163 39 -201 391l-12 164q0 568 145 793q48 36 88 36zM186 576q0 -223 59 -390q49 -98 76 -98h4q60 0 80 97q43 102 43 439v80
q0 233 -83 535q-27 60 -40 69q-22 -8 -28 -26q-111 -235 -111 -706z" />
    <glyph glyph-name="p" unicode="p" horiz-adv-x="555" 
d="M204 1424q213 0 288 -187q13 -41 17 -96q0 -253 -89 -555q-46 -79 -132 -122q-31 -1 -31 8v-4q0 -52 4 -88q-4 -36 -4 -40q12 -226 12 -244q12 -2 12 -48v-15q-16 -42 -43 -53h-14q-21 0 -41 31v33v24q-3 17 -8 83q0 25 3 25l-11 148q4 41 4 60q-4 73 -4 81q-16 8 -16 33
q9 34 14 34q-6 85 -6 108l19 708q-7 0 -7 28v12q0 16 33 36zM268 1339l-19 -699q4 -84 4 -105l-10 5q27 0 67 42q63 40 105 479q4 72 4 95q0 95 -108 171q-29 10 -43 12z" />
    <glyph glyph-name="q" unicode="q" horiz-adv-x="692" 
d="M352 1420q97 0 141 -236q68 -221 68 -600v-204q0 -67 -23 -177q107 -165 107 -187v-4q0 -17 -30 -32h-28q-41 29 -104 152h26q-27 -56 -93 -56q-197 0 -245 402q-20 188 -20 466q0 361 93 436q76 40 108 40zM241 944q0 -652 112 -749q20 -39 63 -39q12 0 25 38
q-114 171 -114 186v4q0 16 33 36h25q30 -21 106 -144h-29q9 65 9 88v244q0 402 -106 704q6 0 -20 24h11q-56 -17 -61 -28q-54 -72 -54 -364z" />
    <glyph glyph-name="r" unicode="r" horiz-adv-x="595" 
d="M155 1496h32q12 -16 66 -25q87 -35 139 -124q70 -169 70 -251v-40q0 -270 -129 -371q152 -36 181 -424v-153q0 -34 5 -109l-29 -19h-31l-30 23q-5 89 -5 129v144q0 146 -88 297q-54 51 -91 51h22q3 -66 3 -108v-152q8 -198 8 -224v-12q-16 -32 -49 -32q-19 0 -46 31l5 34
q-8 168 -8 223v220q-10 0 -24 33v19q16 32 19 32q-19 528 -52 784zM224 1400q22 -271 40 -662q108 73 108 298v56q0 101 -84 257q-56 51 -79 51h15z" />
    <glyph glyph-name="s" unicode="s" horiz-adv-x="575" 
d="M385 1371l23 -29v-13q0 -14 -36 -39h-49q-89 0 -120 -65q-31 -84 -31 -188q0 -63 55 -208q18 -36 212 -212q105 -150 105 -295q0 -114 -49 -223q-26 -59 -132 -98q-40 -21 -68 -21q-38 0 -53 32v14q0 29 62 35q114 43 114 89q36 72 36 183q0 145 -130 283
q-108 82 -162 159q-39 42 -76 215q0 21 -4 53q0 133 50 237q63 91 253 91z" />
    <glyph glyph-name="t" unicode="t" horiz-adv-x="616" 
d="M542 1324l26 -30v-16q0 -37 -137 -37h-112q12 0 13 3l8 -181q-4 -25 -4 -27q36 -605 36 -863q4 -7 4 -20q-4 -6 -4 -4l5 -27q-14 -32 -38 -32h-16q-17 0 -41 28q0 14 4 45q0 85 -36 863q0 126 -7 220l9 -5h-4l-140 -12q-26 28 -26 52q0 17 38 36q35 -9 34 -9q77 7 109 7
h164q49 0 115 9z" />
    <glyph glyph-name="u" unicode="u" horiz-adv-x="698" 
d="M217 1428h24q39 -19 39 -52v-20q35 -650 87 -1046q33 -250 78 -250q33 14 33 56q0 157 -33 792q5 116 5 224v95l-5 27l4 9q-3 49 -13 117l33 24h22q40 0 49 -132q0 -28 -3 -28q3 -40 3 -68v-129l-4 -24q0 17 5 17q-5 -68 -5 -88v-16q32 -696 32 -821q-13 -135 -129 -135
q-132 0 -169 402q-44 343 -85 1022z" />
    <glyph glyph-name="v" unicode="v" horiz-adv-x="633" 
d="M478 1396h16q25 0 37 -34l-120 -1075q-16 -303 -42 -303l-8 -4h-19q-42 0 -69 246q-104 661 -104 1056l-12 52q0 18 33 38h16q61 0 61 -331q51 -571 93 -817h-43q0 63 112 1017q9 155 49 155z" />
    <glyph glyph-name="w" unicode="w" horiz-adv-x="846" 
d="M699 1336h21q23 0 37 -29q-44 -874 -56 -1205q-16 -90 -53 -90h-8q-41 0 -100 216q-105 339 -105 356h45q-31 -445 -31 -585l-28 -19h-21q-39 0 -57 154q-88 413 -173 1054q-2 0 -19 74q0 18 33 38h24q41 0 69 -246q72 -473 96 -603l37 -199h-42q32 511 48 553l37 7
q46 0 64 -174q19 -95 103 -370l29 -100l-34 -17q24 707 57 1167z" />
    <glyph glyph-name="x" unicode="x" horiz-adv-x="835" 
d="M560 1396q23 0 37 -28v-17q-40 -261 -95 -684q129 -249 214 -473l85 -170v-8q0 -16 -33 -36h-12q-54 0 -61 59q-60 105 -174 396q-6 1 -70 141h30q-12 -66 -88 -379q-24 -141 -57 -141h-20q-21 0 -42 33q133 537 133 571q-184 376 -284 645v16l31 23h18q35 0 124 -238
l161 -346q-28 0 10 326q32 241 53 310h40z" />
    <glyph glyph-name="y" unicode="y" horiz-adv-x="650" 
d="M525 1332h17q21 0 41 -31v-10q-32 -287 -68 -559l4 -23v-33q-15 0 -44 -377q-12 -199 -30 -307l-24 -12h-23q-23 6 -37 37q44 532 64 689q-106 229 -278 461q-38 27 -38 57v8q0 16 33 36h30q28 -11 41 -52q159 -197 258 -408h-36q42 363 63 506z" />
    <glyph glyph-name="z" unicode="z" horiz-adv-x="725" 
d="M190 1228h41q0 -16 233 -24q95 -11 95 -56v-7q-89 -243 -213 -730q-87 -236 -87 -344q12 -3 83 -3q39 0 177 4q52 -6 52 8l-24 -12h15q21 0 41 -31v-17q0 -21 -48 -37q-38 9 -65 9q-57 0 -185 -4q-68 8 -126 8q-18 29 -18 40q0 101 93 393q24 68 132 484q48 134 70 213
q-24 5 -271 19q-28 30 -28 51q0 16 33 36z" />
    <glyph glyph-name="braceleft" unicode="{" horiz-adv-x="534" 
d="M363 1591h15q21 0 41 -31v-21q0 -18 -73 -56q-91 -72 -91 -224v-8q0 -211 52 -386v-54q0 -67 -75 -121q83 -41 95 -255v-84q0 -98 -4 -280q0 -54 49 -114q125 -71 127 -89v-13q0 -17 -33 -33q-92 17 -185 110q-48 79 -48 139v4q4 154 4 240v120q0 161 -96 211
q-32 16 -32 57l93 76q19 24 19 62q-56 186 -56 414v4q0 234 198 332z" />
    <glyph glyph-name="bar" unicode="|" 
d="M466 1715h19q53 0 53 -340v-79q0 -117 -24 -610q0 -24 4 -47q-4 -317 -4 -503v-392q0 -11 8 -61q-7 -62 -41 -62h-16q-41 0 -41 183q0 1048 24 1444v169q0 140 -12 253q0 17 30 45z" />
    <glyph glyph-name="braceright" unicode="}" horiz-adv-x="602" 
d="M119 1606q180 -53 240 -159q54 -106 54 -320h8l-8 16v-20q0 -24 8 -24l-8 16v-20q0 -104 -12 -233q0 -68 80 -144v-28q-52 -38 -52 -68q-4 -24 -4 -58q44 -471 44 -545q0 -200 -107 -239q-31 -9 -46 -9h-16q-23 0 -37 28v20q0 27 72 39q44 20 44 165q0 73 -44 535
q0 123 40 157v-10q-64 72 -64 163q12 118 12 187v52q0 291 -81 347q-38 43 -153 74l-7 51z" />
    <glyph glyph-name="asciitilde" unicode="~" horiz-adv-x="739" 
d="M532 915h24q23 0 37 -28v-8q0 -98 -81 -126q-11 -6 -32 -6q-83 0 -166 59q-51 21 -70 21q-30 0 -67 -80h-39q-35 15 -35 52q55 108 141 108q64 0 208 -80h24q16 0 26 27l-3 5v20q0 16 33 36z" />
    <glyph glyph-name="exclamdown" unicode="&#xa1;" horiz-adv-x="445" 
d="M288 -416q-21 0 -42 33l5 23q-76 442 -76 692q0 82 -4 425l28 19h25q23 -6 37 -37q4 -292 4 -430l4 -53q-4 -7 -4 -12q0 -111 76 -615q0 -45 -53 -45zM235 928q-60 0 -60 49q10 67 67 67q47 -20 47 -56q0 -34 -54 -60z" />
    <glyph glyph-name="cent" unicode="&#xa2;" horiz-adv-x="629" 
d="M322 1348h31q94 -17 94 -72q0 -16 -33 -36h-37q-26 32 -38 32q-80 -28 -80 -48q-80 -152 -80 -412v-68q0 -177 48 -425q28 -179 75 -239q53 -46 89 -48q44 0 113 88h26q23 0 37 -28v-12q0 -46 -99 -109q-45 -19 -82 -19h-6q-69 8 -140 70q-77 61 -131 467q-20 87 -20 287
v24q7 414 142 516q67 32 91 32zM539 1256h22q21 0 41 -31v-19q-32 -38 -121 -268q-160 -314 -390 -936q-27 -22 -57 -22q-34 17 -34 48q33 66 241 610q158 330 266 593z" />
    <glyph glyph-name="sterling" unicode="&#xa3;" horiz-adv-x="842" 
d="M348 1327q85 0 85 -40v-8q0 -16 -33 -36q-11 0 -53 3q-70 -45 -70 -171v-24q0 -104 53 -347q136 -17 199 -32l16 -24v-17q-16 -32 -48 -32q-65 12 -164 22v-18q0 -66 -61 -229q-59 -194 -59 -231v27q2 1 75 1q41 0 440 -56q11 2 11 23l26 13h23q23 0 37 -29
q-8 -83 -85 -83h-34l-412 52h-14q-53 0 -66 -44l-23 -12h-23q-45 0 -45 96v4q0 80 120 438v66q-104 21 -104 64q0 31 37 52h29q30 -36 34 -37v-21q-52 245 -52 374q0 187 138 256h23z" />
    <glyph glyph-name="currency" unicode="&#xa4;" 
d="M401 572q37 -35 88 -50q25 -7 50 -7t50 7q51 15 87 50q37 38 52 91q9 27 9 54t-9 54q-15 53 -52 91q-36 35 -88 50q-25 7 -50 7t-50 -8q-51 -15 -87 -49q-35 -37 -51 -91q-9 -27 -9 -55q0 -26 8 -52q15 -54 52 -92zM242 901l-120 120l112 113l121 -122q28 20 87 37
q48 15 98 15q45 0 91 -13q61 -18 90 -38l122 121l112 -113l-120 -119q25 -37 43 -96q13 -44 13 -89q0 -44 -13 -89q-18 -59 -43 -96l120 -119l-112 -113l-121 121q-29 -21 -91 -38q-45 -13 -92 -13q-46 0 -93 13q-62 17 -91 38l-121 -121l-112 113l120 119q-26 37 -43 97
q-12 44 -12 88q0 46 13 91q17 58 42 93z" />
    <glyph glyph-name="yen" unicode="&#xa5;" horiz-adv-x="848" 
d="M626 1219h15q34 -17 34 -43q-29 -76 -121 -389h-32q50 12 136 12q21 0 41 -31v-13q0 -16 -33 -36h-16q-68 0 -118 -11q3 -45 3 -73v-7l186 32q46 -18 50 -40v-15q-5 -19 -46 -37l-19 10l-167 -30q0 -179 8 -454l-28 -19h-21q-31 0 -41 46q-8 291 -8 410h23
q-104 -10 -136 -24q-27 0 -47 31q0 62 136 69q13 0 24 3q0 -1 -6 82q-75 -9 -140 -9l-18 27v21q16 32 45 32q58 0 119 12v-13q-85 115 -292 338q-68 38 -68 75q0 16 34 37q73 -6 356 -347q22 -30 11 -30h-16l104 343q28 41 48 41z" />
    <glyph glyph-name="brokenbar" unicode="&#xa6;" 
d="M427 391h210v-829h-210v829zM427 1598h210v-829h-210v829z" />
    <glyph glyph-name="section" unicode="&#xa7;" 
d="M573 343q39 11 75 44q67 59 67 153q0 4 3 -10h-5q-2 32 -4 43q-20 54 -104 115q-51 25 -111 25q-67 0 -107 -38t-40 -104q0 -112 226 -228zM491 -326q102 5 167 62q65 58 65 152q0 114 -304 259q-129 67 -184.5 144.5t-55.5 186.5q0 155 95 249q73 71 121 79l15 -7
q-129 67 -184.5 144.5t-55.5 186.5q0 155 95 250q89 85 232 93q9 1 20 1h3q69 0 177 -18.5t108 -59.5v-214h-100q-5 92 -72 137q-64 42 -134 46h-14q-67 0 -107 -38t-40 -104q0 -121 274 -252q155 -69 214 -150.5t59 -197.5q0 -177 -107 -295q-51 -42 -71 -52
q79 -41 129 -107q58 -82 58 -197q0 -177 -107 -296q-132 -109 -321 -112v-4q21 4 12 4h-3q-69 0 -177 18.5t-108 59.5v214h100q5 -92 72 -137q62 -41 129 -45z" />
    <glyph glyph-name="dieresis" unicode="&#xa8;" horiz-adv-x="1024" 
d="M406 1206h9q41 0 56 -46q0 -40 -53 -50h-12q-41 0 -44 45v5q5 46 44 46zM541 1203q41 0 53 -60v-6q-12 -45 -49 -45h-10q-49 11 -49 58v2q0 37 48 51h7z" />
    <glyph glyph-name="copyright" unicode="&#xa9;" horiz-adv-x="1033" 
d="M443 1209h58q126 -24 222 -138q124 -173 124 -334q0 -191 -180 -297q-108 -43 -173 -43q-169 0 -280 230q-29 95 -29 190v8q0 176 126 317q41 30 98 42q0 8 34 25zM507 1129q0 -12 -109 -31q-50 -21 -92 -119q-31 -95 -31 -158v-12q0 -240 180 -325q34 -7 43 -7
q83 0 189 77q70 90 70 187q0 131 -108 285q-96 103 -142 103zM520 973l23 -31q0 -57 -75 -57q-33 -15 -33 -100q0 -91 65 -104l60 5l19 -28v-9q0 -48 -53 -48h-36q-112 0 -145 171v17q0 130 85 165q36 19 90 19z" />
    <glyph glyph-name="ordfeminine" unicode="&#xaa;" horiz-adv-x="648" 
 />
    <glyph glyph-name="guillemotleft" unicode="&#xab;" horiz-adv-x="944" 
d="M174 479l365 323h49v-62l-200 -261l200 -261v-62h-49zM487 479l365 323h49v-62l-200 -261l200 -261v-62h-49z" />
    <glyph glyph-name="logicalnot" unicode="&#xac;" 
d="M87 787h890v-518l-14 -14h-135v392h-741v140z" />
    <glyph glyph-name="registered" unicode="&#xae;" horiz-adv-x="1054" 
d="M423 1217h71q124 -25 255 -190q119 -184 119 -374v-12q0 -195 -138 -262q-90 -30 -155 -30h-12q-79 0 -188 92q-149 194 -149 440q0 272 173 322zM316 889v-4q0 -240 142 -407q74 -49 121 -49h6q137 21 137 41q60 79 60 183q0 137 -101 323q-119 144 -197 161h-7
q-77 -11 -101 -39q-60 -71 -60 -209zM434 1065q146 -16 146 -116v-8q0 -65 -60 -130v17q75 -19 164 -158q0 -11 32 -60v-21q0 -17 -30 -32h-26q-20 4 -87 122q-65 79 -97 83v19q8 -119 13 -131q-15 -45 -42 -45h-16q-27 0 -37 38q0 26 2 26q-23 304 -58 304q0 72 96 92z
M440 996q14 -29 29 -143h-29q42 35 54 88q-9 36 -52 36q0 7 -5 8q3 0 3 11z" />
    <glyph glyph-name="macron" unicode="&#xaf;" horiz-adv-x="670" 
 />
    <glyph glyph-name="degree" unicode="&#xb0;" horiz-adv-x="674" 
d="M364 1352q-74 0 -129 -54.5t-55 -134.5t54.5 -133.5t129.5 -53.5t128.5 53.5t53.5 133.5t-54 134.5t-128 54.5zM364 1462q127 0 214.5 -88t87.5 -210q0 -121 -88.5 -209.5t-215.5 -88.5q-129 0 -215.5 87.5t-86.5 210.5t88 210.5t216 87.5z" />
    <glyph glyph-name="plusminus" unicode="&#xb1;" 
 />
    <glyph glyph-name="uni00B2" unicode="&#xb2;" 
 />
    <glyph glyph-name="uni00B3" unicode="&#xb3;" 
 />
    <glyph glyph-name="acute" unicode="&#xb4;" horiz-adv-x="1024" 
d="M557 1235h5q52 0 52 -47q0 -25 -110 -72q-84 -43 -105 -56q-11 -6 -24 -6h-7q-47 6 -47 40v2q0 33 158 109q58 30 78 30z" />
    <glyph glyph-name="mu" unicode="&#xb5;" horiz-adv-x="1180" 
 />
    <glyph glyph-name="paragraph" unicode="&#xb6;" horiz-adv-x="1024" 
d="M979 1455v-110h-127v-1365h-132v1365h-116v-1365h-134v739q-161 8 -269 108.5t-108 258.5q0 164 114.5 266.5t303.5 102.5h468z" />
    <glyph glyph-name="periodcentered" unicode="&#xb7;" horiz-adv-x="508" 
d="M150 752l83 85q23 21 48 21q24 0 50 -23l82 -88q16 -22 16 -40q0 -21 -19 -42l-80 -89q-28 -28 -49 -28q-28 0 -49 22l-89 102q-14 19 -14 37q0 22 21 43z" />
    <glyph glyph-name="periodcentered" unicode="&#x2219;" horiz-adv-x="508" 
d="M150 752l83 85q23 21 48 21q24 0 50 -23l82 -88q16 -22 16 -40q0 -21 -19 -42l-80 -89q-28 -28 -49 -28q-28 0 -49 22l-89 102q-14 19 -14 37q0 22 21 43z" />
    <glyph glyph-name="cedilla" unicode="&#xb8;" horiz-adv-x="1024" 
d="M573 60q33 0 46 -33q-3 -39 -3 -64v-17q-3 14 -20 14h51q72 0 92 -72v-12q0 -97 -115 -137l-23 -3q-68 6 -68 35v6q3 19 32 28q10 12 61 43q17 26 17 33q0 -4 7 -4h-28q4 0 0 -3q-102 0 -102 87q0 99 53 99z" />
    <glyph glyph-name="uni00B9" unicode="&#xb9;" 
 />
    <glyph glyph-name="ordmasculine" unicode="&#xba;" horiz-adv-x="718" 
 />
    <glyph glyph-name="guillemotright" unicode="&#xbb;" horiz-adv-x="944" 
d="M151 156h-50v62l201 261l-201 261v62h50l364 -323zM464 156h-50v62l201 261l-201 261v62h50l364 -323z" />
    <glyph glyph-name="onequarter" unicode="&#xbc;" horiz-adv-x="1708" 
 />
    <glyph glyph-name="onehalf" unicode="&#xbd;" horiz-adv-x="1964" 
 />
    <glyph glyph-name="threequarters" unicode="&#xbe;" horiz-adv-x="1708" 
 />
    <glyph glyph-name="questiondown" unicode="&#xbf;" horiz-adv-x="664" 
d="M359 -328q-90 0 -168 76q-61 77 -61 144v28q0 205 114 392q30 62 30 199q-8 66 -8 105v44q0 33 35 48h18q33 0 37 -35q0 -24 -4 -30q0 1 12 -130q0 -207 -82 -317q-66 -140 -66 -284q0 -77 70 -136q53 -24 77 -24q107 29 107 92v31l-12 16v9q0 33 35 48h29q38 -19 38 -52
v-56q0 -116 -181 -168h-20zM327 932h-20q-19 0 -45 35v25q0 52 57 52q55 0 61 -60q-4 -24 -53 -52z" />
    <glyph glyph-name="Agrave" unicode="&#xc0;" horiz-adv-x="739" 
d="M288 1385h10q72 -33 115 -156q112 -346 165 -882q35 -174 35 -310q-12 -30 -69 -30q-24 46 -56 335q-9 31 -38 251l-9 1q-190 -18 -190 -24v-156l-27 -366q9 -13 9 -30t-35 -38q-68 0 -68 65q31 422 31 506q-4 55 -4 112q2 289 48 612q23 110 83 110zM306 1282
q-51 -196 -51 -569q-4 0 -4 -77v15q97 27 193 27v-15q0 120 -132 573q-25 54 -6 46zM254 1686h23q107 -75 220 -118q20 -20 20 -36q0 -22 -36 -40h-20q-124 40 -224 117q-23 18 -23 48q21 29 40 29z" />
    <glyph glyph-name="Aacute" unicode="&#xc1;" horiz-adv-x="739" 
d="M288 1385h10q72 -33 115 -156q112 -346 165 -882q35 -174 35 -310q-12 -30 -69 -30q-24 46 -56 335q-9 31 -38 251l-9 1q-190 -18 -190 -24v-156l-27 -366q9 -13 9 -30t-35 -38q-68 0 -68 65q31 422 31 506q-4 55 -4 112q2 289 48 612q23 110 83 110zM306 1282
q-51 -196 -51 -569q-4 0 -4 -77v15q97 27 193 27v-15q0 120 -132 573q-25 54 -6 46zM456 1645h5q52 0 52 -47q0 -25 -110 -72q-84 -43 -105 -56q-11 -6 -24 -6h-7q-47 6 -47 40v2q0 33 158 109q58 30 78 30z" />
    <glyph glyph-name="Acircumflex" unicode="&#xc2;" horiz-adv-x="739" 
d="M288 1385h10q72 -33 115 -156q112 -346 165 -882q35 -174 35 -310q-12 -30 -69 -30q-24 46 -56 335q-9 31 -38 251l-9 1q-190 -18 -190 -24v-156l-27 -366q9 -13 9 -30t-35 -38q-68 0 -68 65q31 422 31 506q-4 55 -4 112q2 289 48 612q23 110 83 110zM306 1282
q-51 -196 -51 -569q-4 0 -4 -77v15q97 27 193 27v-15q0 120 -132 573q-25 54 -6 46zM274 1671q64 -29 170 -114v-28q-12 -29 -46 -29q-14 0 -137 85h20q-18 -20 -74 -96l-28 -14q-34 11 -44 34v8q2 42 112 154h27z" />
    <glyph glyph-name="Atilde" unicode="&#xc3;" horiz-adv-x="739" 
d="M289 1385h10q72 -33 115 -156q112 -346 165 -882q35 -174 35 -310q-12 -30 -69 -30q-24 46 -56 335q-9 31 -38 251l-9 1q-190 -18 -190 -24v-156l-27 -366q9 -13 9 -30t-35 -38q-68 0 -68 65q31 422 31 506q-4 55 -4 112q2 289 48 612q23 110 83 110zM307 1282
q-51 -196 -51 -569q-4 0 -4 -77v15q97 27 193 27v-15q0 120 -132 573q-25 54 -6 46zM556 1605h24q23 0 37 -28v-8q0 -98 -81 -126q-11 -6 -32 -6q-83 0 -166 59q-51 21 -70 21q-30 0 -67 -80h-39q-35 15 -35 52q55 108 141 108q64 0 208 -80h24q16 0 26 27l-3 5v20
q0 16 33 36z" />
    <glyph glyph-name="Adieresis" unicode="&#xc4;" horiz-adv-x="739" 
d="M259 1385h10q72 -33 115 -156q112 -346 165 -882q35 -174 35 -310q-12 -30 -69 -30q-24 46 -56 335q-9 31 -38 251l-9 1q-190 -18 -190 -24v-156l-27 -366q9 -13 9 -30t-35 -38q-68 0 -68 65q31 422 31 506q-4 55 -4 112q2 289 48 612q23 110 83 110zM277 1282
q-51 -196 -51 -569q-4 0 -4 -77v15q97 27 193 27v-15q0 120 -132 573q-25 54 -6 46zM225 1616h9q41 0 56 -46q0 -40 -53 -50h-12q-41 0 -44 45v5q5 46 44 46zM360 1613q41 0 53 -60v-6q-12 -45 -49 -45h-10q-49 11 -49 58v2q0 37 48 51h7z" />
    <glyph glyph-name="Aring" unicode="&#xc5;" horiz-adv-x="739" 
d="M288 1385h10q72 -33 115 -156q112 -346 165 -882q35 -174 35 -310q-12 -30 -69 -30q-24 46 -56 335q-9 31 -38 251l-9 1q-190 -18 -190 -24v-156l-27 -366q9 -13 9 -30t-35 -38q-68 0 -68 65q31 422 31 506q-4 55 -4 112q2 289 48 612q23 110 83 110zM306 1282
q-51 -196 -51 -569q-4 0 -4 -77v15q97 27 193 27v-15q0 120 -132 573q-25 54 -6 46zM320 1728q64 0 81 -96v-16q-14 -80 -54 -80q0 -2 -36 -2q-60 0 -96 57q-13 23 -13 49q0 62 83 80q23 8 35 8zM291 1638v-2q0 -17 22 -23v7v12q-2 12 -7 18h12q-27 -5 -27 -12z" />
    <glyph glyph-name="AE" unicode="&#xc6;" horiz-adv-x="861" 
d="M288 1385h10q72 -33 115 -156q112 -346 165 -882q35 -174 35 -310q-12 -30 -69 -30q-24 46 -56 335q-9 31 -38 251l-9 1q-190 -18 -190 -24v-156l-27 -366q9 -13 9 -30t-35 -38q-68 0 -68 65q31 422 31 506q-4 55 -4 112q2 289 48 612q23 110 83 110zM306 1282
q-51 -196 -51 -569q-4 0 -4 -77v15q97 27 193 27v-15q0 120 -132 573q-25 54 -6 46zM578 1415q50 -19 94 -19q80 4 124 4l18 -27v-21q0 -17 -30 -32q-28 0 -120 -4l-18 2q8 -54 8 -199q-24 -349 -24 -411q0 8 158 -5l22 -30v-15q-5 -19 -41 -35q-70 13 -144 13
q-23 -370 -23 -516v-71q-1 11 -17 11h2l179 19v9l-24 -12h23q21 0 41 -31v-13q0 -16 -33 -36h-46l-131 -17q-10 5 0 5l-8 -4q-72 0 -76 68v68q0 168 52 1004v16q0 183 -24 237q0 19 38 42z" />
    <glyph glyph-name="Ccedilla" unicode="&#xc7;" horiz-adv-x="636" 
d="M363 1376h31q94 -17 94 -72q0 -16 -33 -36h-37q-26 32 -38 32q-80 -28 -80 -48q-80 -152 -80 -412v-68q0 -177 48 -425q28 -179 75 -239q53 -46 89 -48q44 0 113 88h26q23 0 37 -28v-12q0 -46 -99 -109q-45 -19 -82 -19h-6q-69 8 -140 70q-77 61 -131 467q-20 87 -20 287
v24q7 414 142 516q67 32 91 32zM381 60q33 0 46 -33q-3 -39 -3 -64v-17q-3 14 -20 14h51q72 0 92 -72v-12q0 -97 -115 -137l-23 -3q-68 6 -68 35v6q3 19 32 28q10 12 61 43q17 26 17 33q0 -4 7 -4h-28q4 0 0 -3q-102 0 -102 87q0 99 53 99z" />
    <glyph glyph-name="Egrave" unicode="&#xc8;" horiz-adv-x="575" 
d="M326 1400l9 -5q-28 0 -28 6q178 -16 178 -50v-7q-13 -37 -47 -37l-116 12q-8 0 -51 -3l2 -28q0 -66 19 -509h4q29 0 50 4q94 -8 148 -8l23 -31v-17q0 -32 -41 -32q-36 0 -116 8q-53 -4 -67 -4v4q0 -282 27 -632q5 0 5 -3q125 7 160 7q31 -10 44 -36v-8q0 -16 -32 -36
q-159 -4 -191 -8q-75 0 -75 71q-28 382 -28 637v128q-20 352 -20 474q-12 60 -12 75l31 23h54q22 0 70 5zM191 1686h23q107 -75 220 -118q20 -20 20 -36q0 -22 -36 -40h-20q-124 40 -224 117q-23 18 -23 48q21 29 40 29z" />
    <glyph glyph-name="Eacute" unicode="&#xc9;" horiz-adv-x="575" 
d="M306 1400l9 -5q-28 0 -28 6q178 -16 178 -50v-7q-13 -37 -47 -37l-116 12q-8 0 -51 -3l2 -28q0 -66 19 -509h4q29 0 50 4q94 -8 148 -8l23 -31v-17q0 -32 -41 -32q-36 0 -116 8q-53 -4 -67 -4v4q0 -282 27 -632q5 0 5 -3q125 7 160 7q31 -10 44 -36v-8q0 -16 -32 -36
q-159 -4 -191 -8q-75 0 -75 71q-28 382 -28 637v128q-20 352 -20 474q-12 60 -12 75l31 23h54q22 0 70 5zM419 1645h5q52 0 52 -47q0 -25 -110 -72q-84 -43 -105 -56q-11 -6 -24 -6h-7q-47 6 -47 40v2q0 33 158 109q58 30 78 30z" />
    <glyph glyph-name="Ecircumflex" unicode="&#xca;" horiz-adv-x="575" 
d="M312 1400l9 -5q-28 0 -28 6q178 -16 178 -50v-7q-13 -37 -47 -37l-116 12q-8 0 -51 -3l2 -28q0 -66 19 -509h4q29 0 50 4q94 -8 148 -8l23 -31v-17q0 -32 -41 -32q-36 0 -116 8q-53 -4 -67 -4v4q0 -282 27 -632q5 0 5 -3q125 7 160 7q31 -10 44 -36v-8q0 -16 -32 -36
q-159 -4 -191 -8q-75 0 -75 71q-28 382 -28 637v128q-20 352 -20 474q-12 60 -12 75l31 23h54q22 0 70 5zM287 1671q64 -29 170 -114v-28q-12 -29 -46 -29q-14 0 -137 85h20q-18 -20 -74 -96l-28 -14q-34 11 -44 34v8q2 42 112 154h27z" />
    <glyph glyph-name="Edieresis" unicode="&#xcb;" horiz-adv-x="575" 
d="M300 1400l9 -5q-28 0 -28 6q178 -16 178 -50v-7q-13 -37 -47 -37l-116 12q-8 0 -51 -3l2 -28q0 -66 19 -509h4q29 0 50 4q94 -8 148 -8l23 -31v-17q0 -32 -41 -32q-36 0 -116 8q-53 -4 -67 -4v4q0 -282 27 -632q5 0 5 -3q125 7 160 7q31 -10 44 -36v-8q0 -16 -32 -36
q-159 -4 -191 -8q-75 0 -75 71q-28 382 -28 637v128q-20 352 -20 474q-12 60 -12 75l31 23h54q22 0 70 5zM210 1616h9q41 0 56 -46q0 -40 -53 -50h-12q-41 0 -44 45v5q5 46 44 46zM345 1613q41 0 53 -60v-6q-12 -45 -49 -45h-10q-49 11 -49 58v2q0 37 48 51h7z" />
    <glyph glyph-name="Igrave" unicode="&#xcc;" horiz-adv-x="424" 
d="M291 1380h16q53 0 53 -232v-52q0 -79 -24 -405q0 -13 4 -29q-4 -211 -4 -334v-260q0 -6 8 -39q-8 -49 -41 -49h-16q-41 0 -41 128q0 695 24 957v111q0 92 -12 167q0 17 33 37zM185 1686h23q107 -75 220 -118q20 -20 20 -36q0 -22 -36 -40h-20q-124 40 -224 117
q-23 18 -23 48q21 29 40 29z" />
    <glyph glyph-name="Iacute" unicode="&#xcd;" horiz-adv-x="424" 
d="M230 1380h16q53 0 53 -232v-52q0 -79 -24 -405q0 -13 4 -29q-4 -211 -4 -334v-260q0 -6 8 -39q-8 -49 -41 -49h-16q-41 0 -41 128q0 695 24 957v111q0 92 -12 167q0 17 33 37zM372 1645h5q52 0 52 -47q0 -25 -110 -72q-84 -43 -105 -56q-11 -6 -24 -6h-7q-47 6 -47 40v2
q0 33 158 109q58 30 78 30z" />
    <glyph glyph-name="Icircumflex" unicode="&#xce;" horiz-adv-x="424" 
d="M223 1380h16q53 0 53 -232v-52q0 -79 -24 -405q0 -13 4 -29q-4 -211 -4 -334v-260q0 -6 8 -39q-8 -49 -41 -49h-16q-41 0 -41 128q0 695 24 957v111q0 92 -12 167q0 17 33 37zM227 1671q64 -29 170 -114v-28q-12 -29 -46 -29q-14 0 -137 85h20q-18 -20 -74 -96l-28 -14
q-34 11 -44 34v8q2 42 112 154h27z" />
    <glyph glyph-name="Idieresis" unicode="&#xcf;" horiz-adv-x="424" 
d="M190 1380h16q53 0 53 -232v-52q0 -79 -24 -405q0 -13 4 -29q-4 -211 -4 -334v-260q0 -6 8 -39q-8 -49 -41 -49h-16q-41 0 -41 128q0 695 24 957v111q0 92 -12 167q0 17 33 37zM129 1616h9q41 0 56 -46q0 -40 -53 -50h-12q-41 0 -44 45v5q5 46 44 46zM264 1613
q41 0 53 -60v-6q-12 -45 -49 -45h-10q-49 11 -49 58v2q0 37 48 51h7z" />
    <glyph glyph-name="Eth" unicode="&#xd0;" horiz-adv-x="612" 
d="M122 1452h34q173 -57 263 -217q130 -264 130 -543v-20q0 -400 -295 -657q-46 -15 -62 -15q-34 0 -42 87l4 8q-11 88 -16 277h-7l8 -16v8q0 158 4 288zM217 1342v26q4 -451 16 -712q-4 -107 -4 -220v-48q0 -151 11 -273q51 44 128 169q91 200 91 376v40q0 247 -122 504
q-84 126 -120 138zM327 787q420 -24 551 -24h16q23 0 37 -28v-21l-23 -31q-223 4 -583 24q-358 -4 -381 -8q-87 6 -87 40v8q0 16 33 36q38 0 52 -4q270 8 385 8z" />
    <glyph glyph-name="Ntilde" unicode="&#xd1;" horiz-adv-x="698" 
d="M186 1401q42 0 206 -562q23 -128 188 -631h-33v14q-23 486 -23 546q0 18 5 122q-1 11 -1 48q8 79 8 125v285q5 42 54 42l42 -22q-12 -237 -12 -351v-113q0 -348 22 -909l-40 -20q-50 0 -315 902l-105 358l37 -60l3 58q7 -83 7 -132l1 -34q-8 -222 -8 -311q0 -447 36 -758
h-50q-47 0 -47 42q-23 349 -23 625v694q7 42 48 42zM581 1605h24q23 0 37 -28v-8q0 -98 -81 -126q-11 -6 -32 -6q-83 0 -166 59q-51 21 -70 21q-30 0 -67 -80h-39q-35 15 -35 52q55 108 141 108q64 0 208 -80h24q16 0 26 27l-3 5v20q0 16 33 36z" />
    <glyph glyph-name="Ograve" unicode="&#xd2;" horiz-adv-x="622" 
d="M397 1392q136 0 205 -558q4 -53 4 -134v-16q0 -16 -3 -32q3 -4 3 -32v-4q0 -28 -3 -32q3 -16 3 -20q0 -430 -126 -536q-51 -20 -71 -20h-32q-163 39 -201 391l-12 164q0 568 145 793q48 36 88 36zM254 576q0 -223 59 -390q49 -98 76 -98h4q60 0 80 97q43 102 43 439v80
q0 233 -83 535q-27 60 -40 69q-22 -8 -28 -26q-111 -235 -111 -706zM281 1686h23q107 -75 220 -118q20 -20 20 -36q0 -22 -36 -40h-20q-124 40 -224 117q-23 18 -23 48q21 29 40 29z" />
    <glyph glyph-name="Oacute" unicode="&#xd3;" horiz-adv-x="622" 
d="M397 1392q136 0 205 -558q4 -53 4 -134v-16q0 -16 -3 -32q3 -4 3 -32v-4q0 -28 -3 -32q3 -16 3 -20q0 -430 -126 -536q-51 -20 -71 -20h-32q-163 39 -201 391l-12 164q0 568 145 793q48 36 88 36zM254 576q0 -223 59 -390q49 -98 76 -98h4q60 0 80 97q43 102 43 439v80
q0 233 -83 535q-27 60 -40 69q-22 -8 -28 -26q-111 -235 -111 -706zM529 1645h5q52 0 52 -47q0 -25 -110 -72q-84 -43 -105 -56q-11 -6 -24 -6h-7q-47 6 -47 40v2q0 33 158 109q58 30 78 30z" />
    <glyph glyph-name="Ocircumflex" unicode="&#xd4;" horiz-adv-x="622" 
d="M397 1392q136 0 205 -558q4 -53 4 -134v-16q0 -16 -3 -32q3 -4 3 -32v-4q0 -28 -3 -32q3 -16 3 -20q0 -430 -126 -536q-51 -20 -71 -20h-32q-163 39 -201 391l-12 164q0 568 145 793q48 36 88 36zM254 576q0 -223 59 -390q49 -98 76 -98h4q60 0 80 97q43 102 43 439v80
q0 233 -83 535q-27 60 -40 69q-22 -8 -28 -26q-111 -235 -111 -706zM391 1671q64 -29 170 -114v-28q-12 -29 -46 -29q-14 0 -137 85h20q-18 -20 -74 -96l-28 -14q-34 11 -44 34v8q2 42 112 154h27z" />
    <glyph glyph-name="Otilde" unicode="&#xd5;" horiz-adv-x="622" 
d="M329 1392q136 0 205 -558q4 -53 4 -134v-16q0 -16 -3 -32q3 -4 3 -32v-4q0 -28 -3 -32q3 -16 3 -20q0 -430 -126 -536q-51 -20 -71 -20h-32q-163 39 -201 391l-12 164q0 568 145 793q48 36 88 36zM186 576q0 -223 59 -390q49 -98 76 -98h4q60 0 80 97q43 102 43 439v80
q0 233 -83 535q-27 60 -40 69q-22 -8 -28 -26q-111 -235 -111 -706zM515 1605h24q23 0 37 -28v-8q0 -98 -81 -126q-11 -6 -32 -6q-83 0 -166 59q-51 21 -70 21q-30 0 -67 -80h-39q-35 15 -35 52q55 108 141 108q64 0 208 -80h24q16 0 26 27l-3 5v20q0 16 33 36z" />
    <glyph glyph-name="Odieresis" unicode="&#xd6;" horiz-adv-x="622" 
d="M397 1392q136 0 205 -558q4 -53 4 -134v-16q0 -16 -3 -32q3 -4 3 -32v-4q0 -28 -3 -32q3 -16 3 -20q0 -430 -126 -536q-51 -20 -71 -20h-32q-163 39 -201 391l-12 164q0 568 145 793q48 36 88 36zM254 576q0 -223 59 -390q49 -98 76 -98h4q60 0 80 97q43 102 43 439v80
q0 233 -83 535q-27 60 -40 69q-22 -8 -28 -26q-111 -235 -111 -706zM326 1616h9q41 0 56 -46q0 -40 -53 -50h-12q-41 0 -44 45v5q5 46 44 46zM461 1613q41 0 53 -60v-6q-12 -45 -49 -45h-10q-49 11 -49 58v2q0 37 48 51h7z" />
    <glyph glyph-name="multiply" unicode="&#xd7;" horiz-adv-x="821" 
d="M377 1036q43 0 48 -153q123 13 200 13h24q23 0 37 -28v-20q0 -17 -30 -32h-35q-79 0 -191 -13v13q0 -59 21 -228l-29 -20h-25q-44 0 -56 224h20q-11 0 -125 -20h-15q-23 0 -37 28v16q0 40 151 54q-3 68 -11 121q0 45 53 45z" />
    <glyph glyph-name="Oslash" unicode="&#xd8;" horiz-adv-x="622" 
d="M329 1392q136 0 205 -558q4 -53 4 -134v-16q0 -16 -3 -32q3 -4 3 -32v-4q0 -28 -3 -32q3 -16 3 -20q0 -430 -126 -536q-51 -20 -71 -20h-32q-163 39 -201 391l-12 164q0 568 145 793q48 36 88 36zM186 576q0 -223 59 -390q49 -98 76 -98h4q60 0 80 97q43 102 43 439v80
q0 233 -83 535q-27 60 -40 69q-22 -8 -28 -26q-111 -235 -111 -706zM569 1256h22q21 0 41 -31v-19q-32 -38 -121 -268q-160 -314 -390 -936q-27 -22 -57 -22q-34 17 -34 48q33 66 241 610q158 330 266 593z" />
    <glyph glyph-name="Ugrave" unicode="&#xd9;" horiz-adv-x="698" 
d="M217 1428h24q39 -19 39 -52v-20q35 -650 87 -1046q33 -250 78 -250q33 14 33 56q0 157 -33 792q5 116 5 224v95l-5 27l4 9q-3 49 -13 117l33 24h22q40 0 49 -132q0 -28 -3 -28q3 -40 3 -68v-129l-4 -24q0 17 5 17q-5 -68 -5 -88v-16q32 -696 32 -821q-13 -135 -129 -135
q-132 0 -169 402q-44 343 -85 1022zM259 1686h23q107 -75 220 -118q20 -20 20 -36q0 -22 -36 -40h-20q-124 40 -224 117q-23 18 -23 48q21 29 40 29z" />
    <glyph glyph-name="Uacute" unicode="&#xda;" horiz-adv-x="698" 
d="M217 1428h24q39 -19 39 -52v-20q35 -650 87 -1046q33 -250 78 -250q33 14 33 56q0 157 -33 792q5 116 5 224v95l-5 27l4 9q-3 49 -13 117l33 24h22q40 0 49 -132q0 -28 -3 -28q3 -40 3 -68v-129l-4 -24q0 17 5 17q-5 -68 -5 -88v-16q32 -696 32 -821q-13 -135 -129 -135
q-132 0 -169 402q-44 343 -85 1022zM507 1645h5q52 0 52 -47q0 -25 -110 -72q-84 -43 -105 -56q-11 -6 -24 -6h-7q-47 6 -47 40v2q0 33 158 109q58 30 78 30z" />
    <glyph glyph-name="Ucircumflex" unicode="&#xdb;" horiz-adv-x="698" 
d="M217 1428h24q39 -19 39 -52v-20q35 -650 87 -1046q33 -250 78 -250q33 14 33 56q0 157 -33 792q5 116 5 224v95l-5 27l4 9q-3 49 -13 117l33 24h22q40 0 49 -132q0 -28 -3 -28q3 -40 3 -68v-129l-4 -24q0 17 5 17q-5 -68 -5 -88v-16q32 -696 32 -821q-13 -135 -129 -135
q-132 0 -169 402q-44 343 -85 1022zM369 1671q64 -29 170 -114v-28q-12 -29 -46 -29q-14 0 -137 85h20q-18 -20 -74 -96l-28 -14q-34 11 -44 34v8q2 42 112 154h27z" />
    <glyph glyph-name="Udieresis" unicode="&#xdc;" horiz-adv-x="698" 
d="M217 1428h24q39 -19 39 -52v-20q35 -650 87 -1046q33 -250 78 -250q33 14 33 56q0 157 -33 792q5 116 5 224v95l-5 27l4 9q-3 49 -13 117l33 24h22q40 0 49 -132q0 -28 -3 -28q3 -40 3 -68v-129l-4 -24q0 17 5 17q-5 -68 -5 -88v-16q32 -696 32 -821q-13 -135 -129 -135
q-132 0 -169 402q-44 343 -85 1022zM304 1616h9q41 0 56 -46q0 -40 -53 -50h-12q-41 0 -44 45v5q5 46 44 46zM439 1613q41 0 53 -60v-6q-12 -45 -49 -45h-10q-49 11 -49 58v2q0 37 48 51h7z" />
    <glyph glyph-name="Yacute" unicode="&#xdd;" horiz-adv-x="650" 
d="M525 1332h17q21 0 41 -31v-10q-32 -287 -68 -559l4 -23v-33q-15 0 -44 -377q-12 -199 -30 -307l-24 -12h-23q-23 6 -37 37q44 532 64 689q-106 229 -278 461q-38 27 -38 57v8q0 16 33 36h30q28 -11 41 -52q159 -197 258 -408h-36q42 363 63 506zM476 1645h5q52 0 52 -47
q0 -25 -110 -72q-84 -43 -105 -56q-11 -6 -24 -6h-7q-47 6 -47 40v2q0 33 158 109q58 30 78 30z" />
    <glyph glyph-name="Thorn" unicode="&#xde;" horiz-adv-x="847" 
d="M142 1447h18q60 0 73 -344q-12 4 -13 4q258 0 427 -137q114 -135 114 -224t-67 -217q-131 -141 -239 -172q-61 -33 -178 -73v10q12 -249 12 -281q0 -28 -39 -45h-27q-36 13 -36 35q0 108 -14 259q-7 0 -30 29v16q0 16 27 29q-14 108 -35 713q0 -4 -13 -4l9 40
q0 142 -28 313v4q0 29 39 45zM238 1026q19 -480 31 -682v26q155 46 277 136q77 71 97 151q16 72 16 89q0 79 -113 190q-123 78 -216 78q-19 8 -93 12h1z" />
    <glyph glyph-name="germandbls" unicode="&#xdf;" horiz-adv-x="894" 
d="M446 1700q182 0 249 -266q12 -53 12 -89q0 -96 -99 -272q-45 -63 -45 -69v-6q0 -37 132 -174q104 -159 104 -277v-7q0 -160 -97 -415q-56 -112 -157 -189q-130 -63 -408 -124h-17q-43 18 -43 72q210 42 393 112q97 46 164 227q63 209 63 327q0 149 -192 346
q-44 63 -44 99v13q0 20 94 167q50 118 50 182q-36 261 -163 261h-12q-83 0 -103 -164q-4 -36 -4 -70v-87q0 -29 36 -337q32 -458 32 -608q0 -118 -86 -147l-17 30q13 67 13 91q-44 703 -80 950v115q0 252 162 302q34 7 63 7z" />
    <glyph glyph-name="agrave" unicode="&#xe0;" horiz-adv-x="739" 
d="M288 1385h10q72 -33 115 -156q112 -346 165 -882q35 -174 35 -310q-12 -30 -69 -30q-24 46 -56 335q-9 31 -38 251l-9 1q-190 -18 -190 -24v-156l-27 -366q9 -13 9 -30t-35 -38q-68 0 -68 65q31 422 31 506q-4 55 -4 112q2 289 48 612q23 110 83 110zM306 1282
q-51 -196 -51 -569q-4 0 -4 -77v15q97 27 193 27v-15q0 120 -132 573q-25 54 -6 46zM253 1686h24q107 -75 219 -118q20 -20 20 -36q0 -22 -36 -40h-19q-124 40 -226 117q-21 18 -21 48q19 29 39 29z" />
    <glyph glyph-name="aacute" unicode="&#xe1;" horiz-adv-x="739" 
d="M288 1385h10q72 -33 115 -156q112 -346 165 -882q35 -174 35 -310q-12 -30 -69 -30q-24 46 -56 335q-9 31 -38 251l-9 1q-190 -18 -190 -24v-156l-27 -366q9 -13 9 -30t-35 -38q-68 0 -68 65q31 422 31 506q-4 55 -4 112q2 289 48 612q23 110 83 110zM306 1282
q-51 -196 -51 -569q-4 0 -4 -77v15q97 27 193 27v-15q0 120 -132 573q-25 54 -6 46zM457 1645h4q52 0 52 -47q0 -25 -110 -72q-83 -43 -105 -57q-11 -5 -24 -5h-7q-47 6 -47 40v2q0 33 158 109q58 30 79 30z" />
    <glyph glyph-name="acircumflex" unicode="&#xe2;" horiz-adv-x="739" 
d="M288 1385h10q72 -33 115 -156q112 -346 165 -882q35 -174 35 -310q-12 -30 -69 -30q-24 46 -56 335q-9 31 -38 251l-9 1q-190 -18 -190 -24v-156l-27 -366q9 -13 9 -30t-35 -38q-68 0 -68 65q31 422 31 506q-4 55 -4 112q2 289 48 612q23 110 83 110zM306 1282
q-51 -196 -51 -569q-4 0 -4 -77v15q97 27 193 27v-15q0 120 -132 573q-25 54 -6 46zM274 1671q64 -29 170 -114v-28q-12 -29 -46 -29q-14 0 -136 85h19q-18 -20 -73 -96l-27 -15q-34 12 -46 34v10q4 41 112 153h27z" />
    <glyph glyph-name="atilde" unicode="&#xe3;" horiz-adv-x="739" 
d="M289 1385h10q72 -33 115 -156q112 -346 165 -882q35 -174 35 -310q-12 -30 -69 -30q-24 46 -56 335q-9 31 -38 251l-9 1q-190 -18 -190 -24v-156l-27 -366q9 -13 9 -30t-35 -38q-68 0 -68 65q31 422 31 506q-4 55 -4 112q2 289 48 612q23 110 83 110zM307 1282
q-51 -196 -51 -569q-4 0 -4 -77v15q97 27 193 27v-15q0 120 -132 573q-25 54 -6 46zM556 1605h24q23 0 37 -28v-8q0 -98 -81 -126q-11 -6 -32 -6q-83 0 -166 59q-51 21 -70 21q-30 0 -67 -80h-39q-35 15 -35 52q55 108 141 108q64 0 208 -80h24q16 0 26 27l-3 5v20
q0 16 33 36z" />
    <glyph glyph-name="adieresis" unicode="&#xe4;" horiz-adv-x="739" 
d="M259 1385h10q72 -33 115 -156q112 -346 165 -882q35 -174 35 -310q-12 -30 -69 -30q-24 46 -56 335q-9 31 -38 251l-9 1q-190 -18 -190 -24v-156l-27 -366q9 -13 9 -30t-35 -38q-68 0 -68 65q31 422 31 506q-4 55 -4 112q2 289 48 612q23 110 83 110zM277 1282
q-51 -196 -51 -569q-4 0 -4 -77v15q97 27 193 27v-15q0 120 -132 573q-25 54 -6 46zM225 1616h9q40 0 56 -45q0 -41 -53 -51h-12q-42 0 -44 46v4q5 46 44 46zM359 1613q42 0 54 -60v-6q-13 -45 -49 -45h-11q-48 11 -48 58v2q0 37 47 51h7z" />
    <glyph glyph-name="aring" unicode="&#xe5;" horiz-adv-x="739" 
d="M288 1385h10q72 -33 115 -156q112 -346 165 -882q35 -174 35 -310q-12 -30 -69 -30q-24 46 -56 335q-9 31 -38 251l-9 1q-190 -18 -190 -24v-156l-27 -366q9 -13 9 -30t-35 -38q-68 0 -68 65q31 422 31 506q-4 55 -4 112q2 289 48 612q23 110 83 110zM306 1282
q-51 -196 -51 -569q-4 0 -4 -77v15q97 27 193 27v-15q0 120 -132 573q-25 54 -6 46zM320 1728q64 0 81 -96v-16q-14 -80 -54 -80q0 -2 -36 -2q-60 0 -96 57q-13 23 -13 49q0 62 82 80q24 8 36 8zM290 1638v-2q0 -17 23 -23v7v12q-2 12 -8 18h13q-28 -5 -28 -12z" />
    <glyph glyph-name="ae" unicode="&#xe6;" horiz-adv-x="861" 
d="M288 1385h10q72 -33 115 -156q112 -346 165 -882q35 -174 35 -310q-12 -30 -69 -30q-24 46 -56 335q-9 31 -38 251l-9 1q-190 -18 -190 -24v-156l-27 -366q9 -13 9 -30t-35 -38q-68 0 -68 65q31 422 31 506q-4 55 -4 112q2 289 48 612q23 110 83 110zM306 1282
q-51 -196 -51 -569q-4 0 -4 -77v15q97 27 193 27v-15q0 120 -132 573q-25 54 -6 46zM578 1415q50 -19 94 -19q80 4 124 4l18 -27v-21q0 -17 -30 -32q-28 0 -120 -4l-18 2q8 -54 8 -199q-24 -349 -24 -411q0 8 158 -5l22 -30v-15q-5 -19 -41 -35q-70 13 -144 13
q-23 -370 -23 -516v-71q-1 11 -17 11h2l179 19v9l-24 -12h23q21 0 41 -31v-13q0 -16 -33 -36h-46l-131 -17q-10 5 0 5l-8 -4q-72 0 -76 68v68q0 168 52 1004v16q0 183 -24 237q0 19 38 42z" />
    <glyph glyph-name="ccedilla" unicode="&#xe7;" horiz-adv-x="636" 
d="M363 1376h31q94 -17 94 -72q0 -16 -33 -36h-37q-26 32 -38 32q-80 -28 -80 -48q-80 -152 -80 -412v-68q0 -177 48 -425q28 -179 75 -239q53 -46 89 -48q44 0 113 88h26q23 0 37 -28v-12q0 -46 -99 -109q-45 -19 -82 -19h-6q-69 8 -140 70q-77 61 -131 467q-20 87 -20 287
v24q7 414 142 516q67 32 91 32zM381 60q33 0 46 -33q-3 -39 -3 -64v-17q-3 14 -20 14h51q72 0 92 -72v-12q0 -97 -115 -137l-23 -3q-68 6 -68 35v6q3 19 32 28q10 12 61 43q17 26 17 33q0 -4 7 -4h-28q4 0 0 -3q-102 0 -102 87q0 99 53 99z" />
    <glyph glyph-name="egrave" unicode="&#xe8;" horiz-adv-x="575" 
d="M224 1415q50 -19 94 -19q80 4 124 4l18 -27v-21q0 -17 -30 -32q-28 0 -120 -4l-18 2q8 -54 8 -199q-24 -349 -24 -411q0 8 158 -5l22 -30v-15q-5 -19 -41 -35q-70 13 -144 13q-23 -370 -23 -516v-71q-1 11 -17 11h2l179 19v9l-24 -12h23q21 0 41 -31v-13q0 -16 -33 -36
h-46l-131 -17q-10 5 0 5l-8 -4q-72 0 -76 68v68q0 168 52 1004v16q0 183 -24 237q0 19 38 42zM191 1686h23q107 -75 220 -118q20 -20 20 -36q0 -22 -36 -40h-20q-124 40 -224 117q-23 18 -23 48q21 29 40 29z" />
    <glyph glyph-name="eacute" unicode="&#xe9;" horiz-adv-x="575" 
d="M217 1415q50 -19 94 -19q80 4 124 4l18 -27v-21q0 -17 -30 -32q-28 0 -120 -4l-18 2q8 -54 8 -199q-24 -349 -24 -411q0 8 158 -5l22 -30v-15q-5 -19 -41 -35q-70 13 -144 13q-23 -370 -23 -516v-71q-1 11 -17 11h2l179 19v9l-24 -12h23q21 0 41 -31v-13q0 -16 -33 -36
h-46l-131 -17q-10 5 0 5l-8 -4q-72 0 -76 68v68q0 168 52 1004v16q0 183 -24 237q0 19 38 42zM432 1645h5q52 0 52 -47q0 -25 -110 -72q-84 -43 -105 -56q-11 -6 -24 -6h-7q-47 6 -47 40v2q0 33 158 109q58 30 78 30z" />
    <glyph glyph-name="ecircumflex" unicode="&#xea;" horiz-adv-x="575" 
d="M214 1415q50 -19 94 -19q80 4 124 4l18 -27v-21q0 -17 -30 -32q-28 0 -120 -4l-18 2q8 -54 8 -199q-24 -349 -24 -411q0 8 158 -5l22 -30v-15q-5 -19 -41 -35q-70 13 -144 13q-23 -370 -23 -516v-71q-1 11 -17 11h2l179 19v9l-24 -12h23q21 0 41 -31v-13q0 -16 -33 -36
h-46l-131 -17q-10 5 0 5l-8 -4q-72 0 -76 68v68q0 168 52 1004v16q0 183 -24 237q0 19 38 42zM290 1671q65 -29 170 -114v-27q-10 -30 -45 -30q-15 0 -137 85h19q-17 -20 -73 -96l-28 -14q-34 11 -44 34v8q2 42 111 154h27z" />
    <glyph glyph-name="edieresis" unicode="&#xeb;" horiz-adv-x="575" 
d="M211 1415q50 -19 94 -19q80 4 124 4l18 -27v-21q0 -17 -30 -32q-28 0 -120 -4l-18 2q8 -54 8 -199q-24 -349 -24 -411q0 8 158 -5l22 -30v-15q-5 -19 -41 -35q-70 13 -144 13q-23 -370 -23 -516v-71q-1 11 -17 11h2l179 19v9l-24 -12h23q21 0 41 -31v-13q0 -16 -33 -36
h-46l-131 -17q-10 5 0 5l-8 -4q-72 0 -76 68v68q0 168 52 1004v16q0 183 -24 237q0 19 38 42zM224 1616h9q40 0 56 -45q0 -41 -53 -51h-12q-42 0 -45 45v5q7 46 45 46zM358 1613q43 0 53 -60v-6q-12 -45 -48 -45h-11q-48 11 -48 58v2q0 37 47 51h7z" />
    <glyph glyph-name="igrave" unicode="&#xec;" horiz-adv-x="424" 
d="M291 1380h16q53 0 53 -232v-52q0 -79 -24 -405q0 -13 4 -29q-4 -211 -4 -334v-260q0 -6 8 -39q-8 -49 -41 -49h-16q-41 0 -41 128q0 695 24 957v111q0 92 -12 167q0 17 33 37zM185 1686h23q107 -75 220 -118q20 -20 20 -36q0 -22 -36 -40h-20q-124 40 -224 117
q-23 18 -23 48q21 29 40 29z" />
    <glyph glyph-name="iacute" unicode="&#xed;" horiz-adv-x="424" 
d="M230 1380h16q53 0 53 -232v-52q0 -79 -24 -405q0 -13 4 -29q-4 -211 -4 -334v-260q0 -6 8 -39q-8 -49 -41 -49h-16q-41 0 -41 128q0 695 24 957v111q0 92 -12 167q0 17 33 37zM372 1645h5q52 0 52 -47q0 -25 -110 -72q-84 -43 -105 -56q-11 -6 -24 -6h-7q-47 6 -47 40v2
q0 33 158 109q58 30 78 30z" />
    <glyph glyph-name="icircumflex" unicode="&#xee;" horiz-adv-x="424" 
d="M223 1380h16q53 0 53 -232v-52q0 -79 -24 -405q0 -13 4 -29q-4 -211 -4 -334v-260q0 -6 8 -39q-8 -49 -41 -49h-16q-41 0 -41 128q0 695 24 957v111q0 92 -12 167q0 17 33 37zM227 1671q64 -29 170 -114v-28q-12 -29 -46 -29q-14 0 -137 85h20q-18 -20 -74 -96l-28 -14
q-34 11 -44 34v8q2 42 112 154h27z" />
    <glyph glyph-name="idieresis" unicode="&#xef;" horiz-adv-x="424" 
d="M190 1380h16q53 0 53 -232v-52q0 -79 -24 -405q0 -13 4 -29q-4 -211 -4 -334v-260q0 -6 8 -39q-8 -49 -41 -49h-16q-41 0 -41 128q0 695 24 957v111q0 92 -12 167q0 17 33 37zM129 1616h9q41 0 56 -46q0 -40 -53 -50h-12q-41 0 -44 45v5q5 46 44 46zM264 1613
q41 0 53 -60v-6q-12 -45 -49 -45h-10q-49 11 -49 58v2q0 37 48 51h7z" />
    <glyph glyph-name="eth" unicode="&#xf0;" horiz-adv-x="612" 
d="M156 1408h44q22 -23 96 -46q124 -77 172 -213q41 -137 41 -217v-120q0 -14 4 -31q-27 -400 -72 -496q0 -45 -86 -217q-60 -88 -90 -88q-50 11 -50 36v21q20 31 20 47q-8 16 -8 30q10 30 6 30q-2 31 -2 64q0 987 -108 1151v13q0 16 33 36zM237 1297v29q84 -258 84 -1114
v-16q4 -80 4 -8q19 28 66 267q20 131 32 321q0 309 -70 408q-41 85 -116 113zM327 787q420 -24 551 -24h16q23 0 37 -28v-21l-23 -31q-223 4 -583 24q-358 -4 -381 -8q-87 6 -87 40v8q0 16 33 36q38 0 52 -4q270 8 385 8z" />
    <glyph glyph-name="ntilde" unicode="&#xf1;" horiz-adv-x="698" 
d="M423 1384h34l30 -30q-9 -51 -9 -106q0 -101 88 -750l36 -412q-11 -38 -53 -38q-41 0 -101 300q-36 130 -139 564q-60 172 -85 288h44l2 -27q0 -81 -16 -489q8 -366 32 -659v-12q-12 -33 -63 -33l-32 24l5 44q-24 260 -32 632q16 398 16 480q0 19 -4 95q4 9 4 7
q-4 16 -4 34q0 84 45 84q59 0 85 -148q136 -450 208 -788q24 -90 24 -80h-48q-18 171 -90 730q-8 57 -12 158q4 77 4 109zM567 1605h24q23 0 37 -28v-8q0 -98 -81 -126q-11 -6 -32 -6q-83 0 -166 59q-51 21 -70 21q-30 0 -67 -80h-39q-35 15 -35 52q55 108 141 108
q64 0 208 -80h24q16 0 26 27l-3 5v20q0 16 33 36z" />
    <glyph glyph-name="ograve" unicode="&#xf2;" horiz-adv-x="622" 
d="M319 1328h42q49 0 97 -149q40 -298 40 -595q0 -467 -60 -558q-39 -46 -77 -46h-16q-132 0 -165 367q-8 133 -16 381v76q0 247 74 431q-2 4 -2 25zM250 796q13 -406 32 -554q30 -182 71 -182q55 0 55 516v8q0 342 -44 600q-25 64 -19 64h5q-57 -36 -92 -337zM213 1686h23
q107 -75 220 -118q20 -20 20 -36q0 -22 -36 -40h-20q-124 40 -224 117q-23 18 -23 48q21 29 40 29z" />
    <glyph glyph-name="oacute" unicode="&#xf3;" horiz-adv-x="622" 
d="M319 1328h42q49 0 97 -149q40 -298 40 -595q0 -467 -60 -558q-39 -46 -77 -46h-16q-132 0 -165 367q-8 133 -16 381v76q0 247 74 431q-2 4 -2 25zM250 796q13 -406 32 -554q30 -182 71 -182q55 0 55 516v8q0 342 -44 600q-25 64 -19 64h5q-57 -36 -92 -337zM461 1645h5
q52 0 52 -47q0 -25 -110 -72q-84 -43 -105 -56q-11 -6 -24 -6h-7q-47 6 -47 40v2q0 33 158 109q58 30 78 30z" />
    <glyph glyph-name="ocircumflex" unicode="&#xf4;" horiz-adv-x="622" 
d="M319 1328h42q49 0 97 -149q40 -298 40 -595q0 -467 -60 -558q-39 -46 -77 -46h-16q-132 0 -165 367q-8 133 -16 381v76q0 247 74 431q-2 4 -2 25zM250 796q13 -406 32 -554q30 -182 71 -182q55 0 55 516v8q0 342 -44 600q-25 64 -19 64h5q-57 -36 -92 -337zM322 1671
q65 -29 170 -114v-27q-10 -30 -45 -30q-15 0 -137 85h19q-17 -20 -73 -96l-28 -14q-34 11 -44 34v8q2 42 111 154h27z" />
    <glyph glyph-name="otilde" unicode="&#xf5;" horiz-adv-x="622" 
d="M319 1328h42q49 0 97 -149q40 -298 40 -595q0 -467 -60 -558q-39 -46 -77 -46h-16q-132 0 -165 367q-8 133 -16 381v76q0 247 74 431q-2 4 -2 25zM250 796q13 -406 32 -554q30 -182 71 -182q55 0 55 516v8q0 342 -44 600q-25 64 -19 64h5q-57 -36 -92 -337zM515 1605h24
q23 0 37 -28v-8q0 -98 -81 -126q-11 -6 -32 -6q-83 0 -166 59q-51 21 -70 21q-30 0 -67 -80h-39q-35 15 -35 52q55 108 141 108q64 0 208 -80h24q16 0 26 27l-3 5v20q0 16 33 36z" />
    <glyph glyph-name="odieresis" unicode="&#xf6;" horiz-adv-x="622" 
d="M319 1328h42q49 0 97 -149q40 -298 40 -595q0 -467 -60 -558q-39 -46 -77 -46h-16q-132 0 -165 367q-8 133 -16 381v76q0 247 74 431q-2 4 -2 25zM250 796q13 -406 32 -554q30 -182 71 -182q55 0 55 516v8q0 342 -44 600q-25 64 -19 64h5q-57 -36 -92 -337zM259 1616h9
q40 0 56 -45q0 -41 -53 -51h-12q-42 0 -45 45v5q7 46 45 46zM393 1613q43 0 53 -60v-6q-12 -45 -48 -45h-11q-48 11 -48 58v2q0 37 47 51h7z" />
    <glyph glyph-name="divide" unicode="&#xf7;" horiz-adv-x="821" 
d="M377 1036q43 0 48 -153q123 13 200 13h24q23 0 37 -28v-20q0 -17 -30 -32h-35q-79 0 -191 -13v13q0 -59 21 -228l-29 -20h-25q-44 0 -56 224h20q-11 0 -125 -20h-15q-23 0 -37 28v16q0 40 151 54q-3 68 -11 121q0 45 53 45z" />
    <glyph glyph-name="oslash" unicode="&#xf8;" horiz-adv-x="622" 
d="M319 1328h42q49 0 97 -149q40 -298 40 -595q0 -467 -60 -558q-39 -46 -77 -46h-16q-132 0 -165 367q-8 133 -16 381v76q0 247 74 431q-2 4 -2 25zM250 796q13 -406 32 -554q30 -182 71 -182q55 0 55 516v8q0 342 -44 600q-25 64 -19 64h5q-57 -36 -92 -337zM569 1256h22
q21 0 41 -31v-19q-32 -38 -121 -268q-160 -314 -390 -936q-27 -22 -57 -22q-34 17 -34 48q33 66 241 610q158 330 266 593z" />
    <glyph glyph-name="ugrave" unicode="&#xf9;" horiz-adv-x="698" 
d="M217 1428h24q39 -19 39 -52v-20q35 -650 87 -1046q33 -250 78 -250q33 14 33 56q0 157 -33 792q5 116 5 224v95l-5 27l4 9q-3 49 -13 117l33 24h22q40 0 49 -132q0 -28 -3 -28q3 -40 3 -68v-129l-4 -24q0 17 5 17q-5 -68 -5 -88v-16q32 -696 32 -821q-13 -135 -129 -135
q-132 0 -169 402q-44 343 -85 1022zM259 1686h23q106 -75 219 -118q21 -20 21 -36q0 -22 -37 -40h-19q-124 40 -225 117q-22 18 -22 48q20 29 40 29z" />
    <glyph glyph-name="uacute" unicode="&#xfa;" horiz-adv-x="698" 
d="M217 1428h24q39 -19 39 -52v-20q35 -650 87 -1046q33 -250 78 -250q33 14 33 56q0 157 -33 792q5 116 5 224v95l-5 27l4 9q-3 49 -13 117l33 24h22q40 0 49 -132q0 -28 -3 -28q3 -40 3 -68v-129l-4 -24q0 17 5 17q-5 -68 -5 -88v-16q32 -696 32 -821q-13 -135 -129 -135
q-132 0 -169 402q-44 343 -85 1022zM507 1645h5q52 0 52 -47q0 -25 -110 -72q-84 -43 -105 -56q-12 -6 -24 -6h-7q-47 6 -47 40v2q0 33 158 109q57 30 78 30z" />
    <glyph glyph-name="ucircumflex" unicode="&#xfb;" horiz-adv-x="698" 
d="M217 1428h24q39 -19 39 -52v-20q35 -650 87 -1046q33 -250 78 -250q33 14 33 56q0 157 -33 792q5 116 5 224v95l-5 27l4 9q-3 49 -13 117l33 24h22q40 0 49 -132q0 -28 -3 -28q3 -40 3 -68v-129l-4 -24q0 17 5 17q-5 -68 -5 -88v-16q32 -696 32 -821q-13 -135 -129 -135
q-132 0 -169 402q-44 343 -85 1022zM368 1671q65 -29 170 -114v-27q-10 -30 -45 -30q-16 0 -138 85h19q-16 -20 -72 -96l-28 -14q-34 11 -44 34v8q2 42 110 154h28z" />
    <glyph glyph-name="udieresis" unicode="&#xfc;" horiz-adv-x="698" 
d="M217 1428h24q39 -19 39 -52v-20q35 -650 87 -1046q33 -250 78 -250q33 14 33 56q0 157 -33 792q5 116 5 224v95l-5 27l4 9q-3 49 -13 117l33 24h22q40 0 49 -132q0 -28 -3 -28q3 -40 3 -68v-129l-4 -24q0 17 5 17q-5 -68 -5 -88v-16q32 -696 32 -821q-13 -135 -129 -135
q-132 0 -169 402q-44 343 -85 1022zM305 1616h9q39 0 56 -45q0 -41 -54 -51h-11q-42 0 -45 45v5q6 46 45 46zM439 1613q42 0 53 -60v-6q-12 -45 -48 -45h-12q-47 11 -47 58v2q0 37 46 51h8z" />
    <glyph glyph-name="yacute" unicode="&#xfd;" horiz-adv-x="650" 
d="M525 1332h17q21 0 41 -31v-10q-32 -287 -68 -559l4 -23v-33q-15 0 -44 -377q-12 -199 -30 -307l-24 -12h-23q-23 6 -37 37q44 532 64 689q-106 229 -278 461q-38 27 -38 57v8q0 16 33 36h30q28 -11 41 -52q159 -197 258 -408h-36q42 363 63 506zM476 1645h5q52 0 52 -47
q0 -25 -110 -72q-84 -43 -105 -56q-11 -6 -24 -6h-7q-47 6 -47 40v2q0 33 158 109q58 30 78 30z" />
    <glyph glyph-name="thorn" unicode="&#xfe;" horiz-adv-x="847" 
d="M142 1447h18q60 0 73 -344q-12 4 -13 4q258 0 427 -137q114 -135 114 -224t-67 -217q-131 -141 -239 -172q-61 -33 -178 -73v10q12 -249 12 -281q0 -28 -39 -45h-27q-36 13 -36 35q0 108 -14 259q-7 0 -30 29v16q0 16 27 29q-14 108 -35 713q0 -4 -13 -4l9 40
q0 142 -28 313v4q0 29 39 45zM238 1026q19 -480 31 -682v26q155 46 277 136q77 71 97 151q16 72 16 89q0 79 -113 190q-123 78 -216 78q-19 8 -93 12h1z" />
    <glyph glyph-name="ydieresis" unicode="&#xff;" horiz-adv-x="650" 
d="M525 1332h17q21 0 41 -31v-10q-32 -287 -68 -559l4 -23v-33q-15 0 -44 -377q-12 -199 -30 -307l-24 -12h-23q-23 6 -37 37q44 532 64 689q-106 229 -278 461q-38 27 -38 57v8q0 16 33 36h30q28 -11 41 -52q159 -197 258 -408h-36q42 363 63 506zM287 1576h9q41 0 56 -46
q0 -40 -53 -50h-12q-41 0 -44 45v5q5 46 44 46zM422 1573q41 0 53 -60v-6q-12 -45 -49 -45h-10q-49 11 -49 58v2q0 37 48 51h7z" />
    <glyph glyph-name="dotlessi" unicode="&#x131;" horiz-adv-x="514" 
d="M378 223q0 -153 75 -153h71v-90h-492v90h71q75 0 75 153v432q0 57 -86 57h-73v78q226 70 267 188h92v-755z" />
    <glyph glyph-name="circumflex" unicode="&#x2c6;" horiz-adv-x="1024" 
d="M405 1261q64 -29 170 -114v-28q-12 -29 -46 -29q-14 0 -137 85h20q-18 -20 -74 -96l-28 -14q-34 11 -44 34v8q2 42 112 154h27z" />
    <glyph glyph-name="caron" unicode="&#x2c7;" horiz-adv-x="1024" 
d="M221 1454h110l222 -204l222 204h110l-258 -396h-148z" />
    <glyph glyph-name="uni02C9" unicode="&#x2c9;" horiz-adv-x="1024" 
d="M254 1175v165h566v-165h-566z" />
    <glyph glyph-name="breve" unicode="&#x2d8;" horiz-adv-x="1024" 
d="M219 1369h100q19 -82 69.5 -111.5t151.5 -29.5t151 29t69 112h100q-25 -161 -105 -235.5t-215 -74.5q-133 0 -214 75t-107 235z" />
    <glyph glyph-name="dotaccent" unicode="&#x2d9;" horiz-adv-x="1024" 
d="M479 1337h59q49 -20 49 -73v-16q0 -21 -47 -50h-47q-26 0 -55 45v51q0 22 41 43z" />
    <glyph glyph-name="ring" unicode="&#x2da;" horiz-adv-x="1024" 
d="M370 1318q64 0 81 -96v-16q-14 -80 -54 -80q0 -2 -36 -2q-60 0 -96 57q-13 23 -13 49q0 62 83 80q23 8 35 8zM341 1228v-2q0 -17 22 -23v7v12q-2 12 -7 18h12q-27 -5 -27 -12z" />
    <glyph glyph-name="ogonek" unicode="&#x2db;" horiz-adv-x="1024" 
d="M550 12h23q32 -6 32 -30v-20q0 -21 -80 -199v0q16 -52 40 -52h30q10 0 42 45h29q22 0 45 -35q0 -77 -108 -100h-38q-107 0 -140 138v7q0 26 76 192q19 54 49 54z" />
    <glyph glyph-name="tilde" unicode="&#x2dc;" horiz-adv-x="1024" 
d="M710 1195h24q23 0 37 -28v-8q0 -98 -81 -126q-11 -6 -32 -6q-83 0 -166 59q-51 21 -70 21q-30 0 -67 -80h-39q-35 15 -35 52q55 108 141 108q64 0 208 -80h24q16 0 26 27l-3 5v20q0 16 33 36z" />
    <glyph glyph-name="hungarumlaut" unicode="&#x2dd;" horiz-adv-x="1024" 
d="M217 1059l159 301q25 47 52 70.5t63 23.5q39 0 66 -26.5t27 -60.5q0 -20 -12.5 -42t-33.5 -46l-213 -220h-108zM502 1059l159 301q25 47 52 70.5t63 23.5q39 0 66 -26.5t27 -60.5q0 -20 -12.5 -42t-33.5 -46l-213 -220h-108z" />
    <glyph glyph-name="endash" unicode="&#x2013;" horiz-adv-x="1108" 
d="M56 399v160h1046v-160h-1046z" />
    <glyph glyph-name="emdash" unicode="&#x2014;" horiz-adv-x="2048" 
d="M0 399v160h2098v-160h-2098z" />
    <glyph glyph-name="quoteleft" unicode="&#x2018;" horiz-adv-x="346" 
d="M207 1387h20q22 0 42 -33q-45 -203 -81 -276l-22 -11h-15q-21 0 -42 34q38 126 71 269z" />
    <glyph glyph-name="quoteright" unicode="&#x2019;" horiz-adv-x="346" 
d="M207 1387h20q22 0 42 -33q-45 -203 -81 -276l-22 -11h-15q-21 0 -42 34q38 126 71 269z" />
    <glyph glyph-name="quotesinglbase" unicode="&#x201a;" horiz-adv-x="557" 
d="M251 301q71 0 120.5 -73t49.5 -164q0 -113 -75.5 -238.5t-184.5 -125.5v73q74 44 87 181q0 105 -129 147v62z" />
    <glyph glyph-name="quotedblleft" unicode="&#x201c;" horiz-adv-x="672" 
d="M393 1546h17q57 0 57 -244v-36q0 -2 4 -23q0 -45 -53 -45q-45 0 -45 252q-1 0 -12 59q0 17 32 37zM272 1530q55 -7 55 -52q-11 -276 -65 -276h-12q-23 0 -38 30q17 80 25 230l-12 20v16q16 32 47 32z" />
    <glyph glyph-name="quotedblright" unicode="&#x201d;" horiz-adv-x="672" 
d="M393 1546h17q57 0 57 -244v-36q0 -2 4 -23q0 -45 -53 -45q-45 0 -45 252q-1 0 -12 59q0 17 32 37zM272 1530q55 -7 55 -52q-11 -276 -65 -276h-12q-23 0 -38 30q17 80 25 230l-12 20v16q16 32 47 32z" />
    <glyph glyph-name="quotedblbase" unicode="&#x201e;" horiz-adv-x="910" 
d="M251 301q71 0 120.5 -73t49.5 -164q0 -113 -75.5 -238.5t-184.5 -125.5v73q74 44 87 181q0 105 -129 147v62zM604 301q71 0 120.5 -73t49.5 -164q0 -113 -75.5 -238.5t-184.5 -125.5v73q74 44 87 181q0 105 -129 147v62z" />
    <glyph glyph-name="dagger" unicode="&#x2020;" 
d="M484 1045q-6 69 -50 147q-59 105 -59 137q0 57 43.5 92.5t113.5 35.5q67 0 112 -33t45 -86q0 -36 -57 -145q-44 -82 -51 -149q60 5 136 48q107 61 143 61q62 0 98 -43t36 -109q0 -62 -33 -107t-92 -45q-39 0 -150 58q-80 44 -139 51q7 -146 111 -249q-108 -467 -114 -999
h-88q-6 532 -116 999q104 103 112 249q-61 -6 -138 -48q-107 -61 -143 -61q-62 0 -97.5 43t-35.5 109q0 62 33 107t91 45q39 0 151 -59q80 -44 138 -49z" />
    <glyph glyph-name="daggerdbl" unicode="&#x2021;" 
d="M579 209q59 7 139 51q111 58 150 58q59 0 92 -45t33 -107q0 -66 -36 -109t-98 -43q-36 0 -143 61q-76 43 -136 48q7 -67 51 -149q57 -109 57 -145q0 -53 -45 -86t-112 -33q-70 0 -113.5 35.5t-43.5 92.5q0 32 59 137q44 78 50 147q-58 -5 -138 -49q-112 -59 -151 -59
q-58 0 -91 45t-33 107q0 66 35.5 109t97.5 43q36 0 143 -61q77 -42 138 -48q-8 198 -113 375q105 176 113 374q-61 -6 -138 -48q-107 -61 -143 -61q-62 0 -97.5 43t-35.5 109q0 62 33 107t91 45q39 0 151 -59q80 -44 138 -49q-6 69 -50 147q-59 105 -59 137q0 57 43.5 92.5
t113.5 35.5q67 0 112 -33t45 -86q0 -36 -57 -145q-44 -82 -51 -149q60 5 136 48q107 61 143 61q62 0 98 -43t36 -109q0 -62 -33 -107t-92 -45q-39 0 -150 58q-80 44 -139 51q7 -198 112 -374q-105 -177 -112 -375z" />
    <glyph glyph-name="bullet" unicode="&#x2022;" horiz-adv-x="1024" 
d="M216 718q0 130 93.5 222.5t228.5 92.5q134 0 227 -93t93 -222t-94 -223t-228 -94q-135 0 -227.5 93.5t-92.5 223.5z" />
    <glyph glyph-name="ellipsis" unicode="&#x2026;" horiz-adv-x="2048" 
d="M150 179l83 85q23 21 48 21q24 0 50 -23l82 -88q16 -22 16 -40q0 -21 -19 -42l-80 -89q-28 -28 -49 -28q-28 0 -49 22l-89 102q-14 19 -14 37q0 22 21 43zM833 179l83 85q23 21 48 21q24 0 50 -23l82 -88q16 -22 16 -40q0 -21 -19 -42l-80 -89q-28 -28 -49 -28
q-28 0 -49 22l-89 102q-14 19 -14 37q0 22 21 43zM1516 179l83 85q23 21 48 21q24 0 50 -23l82 -88q16 -22 16 -40q0 -21 -19 -42l-80 -89q-28 -28 -49 -28q-28 0 -49 22l-89 102q-14 19 -14 37q0 22 21 43z" />
    <glyph glyph-name="guilsinglleft" unicode="&#x2039;" horiz-adv-x="631" 
d="M174 479l365 323h49v-62l-200 -261l200 -261v-62h-49z" />
    <glyph glyph-name="guilsinglright" unicode="&#x203a;" horiz-adv-x="631" 
d="M151 156h-50v62l201 261l-201 261v62h50l364 -323z" />
    <glyph glyph-name="fraction" unicode="&#x2044;" horiz-adv-x="342" 
d="M-342 -49l966 1501h140l-964 -1501h-142z" />
    <glyph glyph-name="fraction" unicode="&#x2215;" horiz-adv-x="342" 
d="M-342 -49l966 1501h140l-964 -1501h-142z" />
    <glyph glyph-name="franc" unicode="&#x20a3;" 
d="M247 337h-194v100h194v712q0 215 -78 215h-121v90h958l120 -271h-103q-59 182 -171 182l-316 -1q-77 0 -77 -215v-332h336q75 0 75 43v78h100v-382h-100v80q0 42 -75 42h-336v-241h194v-100h-194v-52q0 -215 77 -215h122v-90h-610v90h121q78 0 78 215v52z" />
    <glyph glyph-name="lira" unicode="&#x20a4;" horiz-adv-x="842" 
d="M348 1327q85 0 85 -40v-8q0 -16 -33 -36q-11 0 -53 3q-70 -45 -70 -171v-24q0 -104 53 -347q136 -17 199 -32l16 -24v-17q-16 -32 -48 -32q-65 12 -164 22v-18q0 -66 -61 -229q-59 -194 -59 -231v27q2 1 75 1q41 0 440 -56q11 2 11 23l26 13h23q23 0 37 -29
q-8 -83 -85 -83h-34l-412 52h-14q-53 0 -66 -44l-23 -12h-23q-45 0 -45 96v4q0 80 120 438v66q-104 21 -104 64q0 31 37 52h29q30 -36 34 -37v-21q-52 245 -52 374q0 187 138 256h23z" />
    <glyph glyph-name="peseta" unicode="&#x20a7;" horiz-adv-x="2028" 
d="M459 1364v-640q2 -5 6 -12q39 -98 101 -146q50 -38 99 -38q8 0 16 1q57 7 111.5 68.5t80.5 167.5q22 85 22 175q0 24 -1 46q-7 113 -47.5 211.5t-100.5 136.5q-49 31 -97 31q-9 0 -20 -1h-170zM1469 888h-102v-665q0 -75 29 -107q22 -24 26 -25l-69 187l100 2
q59 -139 113 -180q50 -38 110 -38h7q81 0 133 45q52 47 52 123q0 91 -247 209q-107 55 -153 119.5t-46 154.5q0 128 80 208zM1088 890q-6 -85 -48 -180q-53 -119 -150 -187t-205 -68q-109 0 -207 69q-35 23 -19 6v-245q0 -215 77 -215h122v-90h-610v90h121q78 0 78 215v864
q0 215 -78 215h-121v90h643q101 -2 197 -67t151 -186q51 -116 52 -223h-15q191 0 191 355h100v-355h228q41 19 116 20h2q57 0 147.5 -15.5t90.5 -51.5v-179h-91q-4 77 -58 113.5t-117 36.5q-53 0 -84.5 -30t-31.5 -83q0 -97 222 -203q128 -57 177 -124.5t49 -163.5
q0 -146 -89 -244q-110 -91 -247 -93q-61 0 -112 12q-24 5 -49 5q-16 0 -31 -3q-30 -5 -64 -5q-137 0 -192.5 63.5t-62.5 169.5h-2v687h-80z" />
    <glyph glyph-name="Euro" unicode="&#x20ac;" horiz-adv-x="746" 
d="M548 1386q77 0 77 -52q0 -23 -46 -43l-30 15h3q-129 0 -235 -375q-20 -118 -20 -117h247q23 0 37 -28v-18q-11 -34 -61 -34h-242q15 2 15 12v-51q-1 11 -17 11q202 -4 266 -4l34 5q36 -16 41 -35v-18q-16 -32 -45 -32q-58 0 -279 4v16q0 -117 58 -316q89 -106 139 -118
q59 -30 227 -73l16 -24v-17q0 -32 -44 -32q-260 54 -357 152q-77 81 -97 193q-16 73 -34 223q-126 0 -126 64q0 16 39 40q54 -24 110 -24h-21v5l2 21q-126 9 -126 50q-4 7 -4 33l31 23h43q0 -20 58 -26q0 132 114 385q104 185 227 185z" />
    <glyph glyph-name="afii61352" unicode="&#x2116;" horiz-adv-x="2271" 
 />
    <glyph glyph-name="trademark" unicode="&#x2122;" horiz-adv-x="931" 
d="M643 1353h27q70 0 85 -423l-26 -13h-31q-37 21 -37 60q0 173 -20 272h37q-15 -60 -15 -168v-16q0 -17 -30 -32h-19q-44 0 -59 156q-5 0 -8 28h42q-10 -87 -14 -260q-30 -24 -63 -24l-31 24q13 241 32 341q0 29 37 51h20q40 0 57 -80h-38q0 37 54 84zM469 1325
q42 -12 42 -48q0 -16 -35 -38l-27 6q-66 -7 -51 0q17 -29 33 -294q-12 -34 -37 -34h-20q-17 0 -38 28l5 25q-19 251 -44 251v4h25l-40 -12h-16q-21 0 -41 31v15q14 49 244 66z" />
    <glyph glyph-name="partialdiff" unicode="&#x2202;" 
d="M282 537q0 -40 5 -77q14 -120 60 -224.5t113 -158.5q56 -47 110 -47q4 0 10 1q59 4 111.5 63.5t74.5 169.5q16 72 16 146q0 41 -5 83q-14 120 -61 226t-113 159q-58 44 -111 44h-10q-56 -4 -108.5 -63t-75.5 -168q-16 -82 -16 -154zM987 477q0 -135 -58.5 -258.5
t-167 -193.5t-229.5 -70t-229.5 70t-167 193.5t-58.5 258.5t60 259t169.5 193t225.5 69q117 0 227 -69q31 -19 -16 24q-52 145 -196 282t-334 151v93q345 0 559.5 -292.5t214.5 -709.5z" />
    <glyph glyph-name="Delta" unicode="&#x2206;" horiz-adv-x="1081" 
d="M547 1125l-372 -982h734zM581 1504l559 -1524h-1134z" />
    <glyph glyph-name="product" unicode="&#x220f;" horiz-adv-x="1515" 
d="M536 1364q-77 0 -77 -215v-1281q0 -215 77 -215h122v-91h-610v91h121q78 0 78 215v1281q0 215 -78 215h-121v90h1469v-90h-122q-77 0 -77 -215v-1281q0 -215 77 -215h122v-90h-610v90h121q78 0 78 215v1281q0 215 -78 215h-492z" />
    <glyph glyph-name="summation" unicode="&#x2211;" horiz-adv-x="1206" 
d="M1114 547l-771 -893h588q111 0 170 182h103l-120 -272h-964v90q74 0 110 44l654 771l-653 846q-38 49 -111 49v90h964l120 -272h-103q-59 182 -170 182h-441z" />
    <glyph glyph-name="minus" unicode="&#x2212;" 
d="M87 627v180h876l14 -14v-166h-890z" />
    <glyph glyph-name="radical" unicode="&#x221a;" 
d="M211 -56l-194 424l118 55l72 -158l711 1434h192v-100h-81z" />
    <glyph glyph-name="infinity" unicode="&#x221e;" 
d="M439 755q-13 91 -62 116q-40 19 -71 19q-9 0 -17 -1q-42 -9 -81 -40t-59 -76q-19 -43 -19 -84v-8q2 -43 24 -79t60 -50q24 -9 51 -9q13 0 27 2q41 9 79 38.5t68 171.5zM516 686q11 -85 85 -137q62 -43 107 -43q8 0 15 1q56 11 107 47.5t78 93.5q24 51 24 101v11
q-2 55 -32 98t-80 61q-32 11 -66 11q-19 0 -39 -4q-60 -8 -114.5 -56t-84.5 -184zM476 930q-16 -64 -4 -29q36 93 103 147t144 54t144 -52.5t102.5 -143.5t35.5 -189t-35.5 -189t-102.5 -143.5t-144 -52.5t-144 54t-103 146q-12 36 4 -28q18 78 11 57q-29 -78 -81.5 -123
t-115.5 -45t-116.5 46t-80.5 122t-27 156q0 79 27 155.5t80.5 122.5t116.5 46t115.5 -45t81.5 -122q7 -22 -11 56z" />
    <glyph glyph-name="integral" unicode="&#x222b;" horiz-adv-x="665" 
d="M13 -301q-85 0 -85 49v179h86q1 -53 26.5 -69.5t46.5 -16.5h1q61 0 90 145q32 161 40 314l70 735l8 62q27 241 139.5 440t254.5 199q85 0 85 -49v-179h-86q-1 53 -26.5 69.5t-46.5 16.5q-51 0 -93.5 -146.5t-46.5 -353.5l-73 -767q-20 -235 -135 -431.5t-255 -196.5z" />
    <glyph glyph-name="approxequal" unicode="&#x2248;" 
d="M973 1117v-226q-71 -81 -135.5 -109t-127.5 -28q-66 0 -183.5 48.5t-170.5 48.5q-44 0 -95.5 -25.5t-166.5 -158.5v226q72 82 136.5 110.5t125.5 28.5q70 0 187.5 -49.5t166.5 -49.5q45 0 96.5 25.5t166.5 158.5zM973 769v-226q-71 -81 -135.5 -109t-127.5 -28
q-66 0 -183.5 48.5t-170.5 48.5q-44 0 -95.5 -25.5t-166.5 -158.5v226q72 82 136.5 110.5t125.5 28.5q70 0 187.5 -49.5t166.5 -49.5q45 0 96.5 25.5t166.5 158.5z" />
    <glyph glyph-name="lessequal" unicode="&#x2264;" 
d="M977 1064l-607 -349l607 -345v-216l-890 510v103l890 513v-216zM87 -19v180h876l14 -14v-166h-890z" />
    <glyph glyph-name="greaterequal" unicode="&#x2265;" 
d="M87 1280l890 -513v-103l-890 -510v216l607 345l-607 349v216zM87 -18v180h876l14 -14v-166h-890z" />
    <glyph glyph-name="uniF001" unicode="&#xf001;" horiz-adv-x="1073" 
 />
    <glyph glyph-name="uniF001" unicode="&#xfb01;" horiz-adv-x="1073" 
 />
    <glyph glyph-name="uniF002" unicode="&#xf002;" horiz-adv-x="1081" 
 />
    <glyph glyph-name="uniF002" unicode="&#xfb02;" horiz-adv-x="1081" 
 />
    <glyph glyph-name="uni20B1" unicode="&#x20b1;" horiz-adv-x="917" 
d="M303 1216q198 0 263 -109q55 -54 84 -168q144 -8 144 -47v-10q-8 -26 -38 -42h-40q-14 16 -47 16h-15v4q0 -56 -9 -103q3 -1 71 -1l18 -27v-19q-5 -19 -40 -35l-64 6q0 -46 -174 -193q-17 0 -77 -44q15 -198 15 -380v-4q0 -13 4 -37q-14 -43 -41 -43h-17q-36 11 -36 56
v40q0 256 -20 387q0 14 4 21q-4 43 -8 244q0 -3 -41 0q-103 31 -123 64v23q14 33 66 33q27 -31 88 -41q15 -7 6 -7v75q-144 16 -144 61v4q0 43 39 60h14q29 0 41 -36q17 -4 50 -9v188l-5 49zM362 1136q4 8 0 -24q4 -88 4 -156v-6q16 -2 35 -2h56q43 0 103 -3q0 23 -72 125
q-57 66 -126 66zM366 871v-82q121 -17 191 -17q7 29 7 88v5zM366 709q0 23 4 15q4 -149 4 -186q53 30 99 78q57 57 62 74q-35 2 -169 19z" />
    <glyph glyph-name="heart" unicode="&#x2665;" horiz-adv-x="674" 
d="M498 751q95 -28 95 -197q0 -104 -117 -369q-20 -75 -68 -75q-33 0 -107 148l-123 183q-35 60 -35 138q26 163 117 163h5q69 -6 139 -128q-29 0 -16 55q54 72 110 82z" />
    <glyph glyph-name="Aogonek" unicode="&#x104;" horiz-adv-x="739" 
d="M288 1385h10q72 -33 115 -156q112 -346 165 -882q35 -174 35 -310q-12 -30 -69 -30q-24 46 -56 335q-9 31 -38 251l-9 1q-190 -18 -190 -24v-156l-27 -366q9 -13 9 -30t-35 -38q-68 0 -68 65q31 422 31 506q-4 55 -4 112q2 289 48 612q23 110 83 110zM306 1282
q-51 -196 -51 -569q-4 0 -4 -77v15q97 27 193 27v-15q0 120 -132 573q-25 54 -6 46zM554 60h23q32 -6 32 -30v-20q0 -21 -80 -199v0q16 -52 40 -52h30q10 0 42 45h29q22 0 45 -35q0 -77 -108 -100h-38q-107 0 -140 138v7q0 26 76 192q19 54 49 54z" />
    <glyph glyph-name="aogonek" unicode="&#x105;" horiz-adv-x="739" 
d="M288 1385h10q72 -33 115 -156q112 -346 165 -882q35 -174 35 -310q-12 -30 -69 -30q-24 46 -56 335q-9 31 -38 251l-9 1q-190 -18 -190 -24v-156l-27 -366q9 -13 9 -30t-35 -38q-68 0 -68 65q31 422 31 506q-4 55 -4 112q2 289 48 612q23 110 83 110zM306 1282
q-51 -196 -51 -569q-4 0 -4 -77v15q97 27 193 27v-15q0 120 -132 573q-25 54 -6 46zM558 46h23q32 -6 32 -30v-20q0 -21 -80 -199v0q16 -52 40 -52h30q10 0 42 45h29q22 0 45 -35q0 -77 -108 -100h-38q-107 0 -140 138v7q0 26 76 192q19 54 49 54z" />
    <glyph glyph-name="Cacute" unicode="&#x106;" horiz-adv-x="636" 
d="M363 1376h31q94 -17 94 -72q0 -16 -33 -36h-37q-26 32 -38 32q-80 -28 -80 -48q-80 -152 -80 -412v-68q0 -177 48 -425q28 -179 75 -239q53 -46 89 -48q44 0 113 88h26q23 0 37 -28v-12q0 -46 -99 -109q-45 -19 -82 -19h-6q-69 8 -140 70q-77 61 -131 467q-20 87 -20 287
v24q7 414 142 516q67 32 91 32zM499 1645h5q52 0 52 -47q0 -25 -110 -72q-84 -43 -105 -56q-11 -6 -24 -6h-7q-47 6 -47 40v2q0 33 158 109q58 30 78 30z" />
    <glyph glyph-name="cacute" unicode="&#x107;" horiz-adv-x="636" 
d="M363 1376h31q94 -17 94 -72q0 -16 -33 -36h-37q-26 32 -38 32q-80 -28 -80 -48q-80 -152 -80 -412v-68q0 -177 48 -425q28 -179 75 -239q53 -46 89 -48q44 0 113 88h26q23 0 37 -28v-12q0 -46 -99 -109q-45 -19 -82 -19h-6q-69 8 -140 70q-77 61 -131 467q-20 87 -20 287
v24q7 414 142 516q67 32 91 32zM430 1612h5q52 0 52 -47q0 -25 -110 -72q-84 -43 -105 -56q-11 -6 -24 -6h-7q-47 6 -47 40v2q0 33 158 109q58 30 78 30z" />
    <glyph glyph-name="Eogonek" unicode="&#x118;" horiz-adv-x="575" 
d="M306 1400l9 -5q-28 0 -28 6q178 -16 178 -50v-7q-13 -37 -47 -37l-116 12q-8 0 -51 -3l2 -28q0 -66 19 -509h4q29 0 50 4q94 -8 148 -8l23 -31v-17q0 -32 -41 -32q-36 0 -116 8q-53 -4 -67 -4v4q0 -282 27 -632q5 0 5 -3q125 7 160 7q31 -10 44 -36v-8q0 -16 -32 -36
q-159 -4 -191 -8q-75 0 -75 71q-28 382 -28 637v128q-20 352 -20 474q-12 60 -12 75l31 23h54q22 0 70 5zM279 12h23q32 -6 32 -30v-20q0 -21 -80 -199v0q16 -52 40 -52h30q10 0 42 45h29q22 0 45 -35q0 -77 -108 -100h-38q-107 0 -140 138v7q0 26 76 192q19 54 49 54z" />
    <glyph glyph-name="eogonek" unicode="&#x119;" horiz-adv-x="575" 
d="M317 1400l9 -5q-28 0 -28 6q178 -16 178 -50v-7q-13 -37 -47 -37l-116 12q-8 0 -51 -3l2 -28q0 -66 19 -509h4q29 0 50 4q94 -8 148 -8l23 -31v-17q0 -32 -41 -32q-36 0 -116 8q-53 -4 -67 -4v4q0 -282 27 -632q5 0 5 -3q125 7 160 7q31 -10 44 -36v-8q0 -16 -32 -36
q-159 -4 -191 -8q-75 0 -75 71q-28 382 -28 637v128q-20 352 -20 474q-12 60 -12 75l31 23h54q22 0 70 5zM276 23h23q32 -6 32 -30v-20q0 -21 -80 -199v0q16 -52 40 -52h30q10 0 42 45h29q22 0 45 -35q0 -77 -108 -100h-38q-107 0 -140 138v7q0 26 76 192q19 54 49 54z" />
    <glyph glyph-name="Lslash" unicode="&#x141;" horiz-adv-x="575" 
d="M195 1456h4q22 0 41 -31q0 -45 4 -45l-8 16q28 -440 28 -739q12 -97 12 -269v-328h191q23 0 37 -28v-16q0 -36 -93 -36h-184q-21 0 -41 31v29q0 48 2 48l-2 27v293q-16 526 -32 875l-12 135q12 38 53 38zM233.404 771.214q244.79 -192.01 323.387 -244.413
l9.59961 -6.40039q13.7988 -9.2002 13.7988 -42.8008l-6.29883 -21l-23.0996 -21.7998q-132.595 93.2061 -342.586 257.215q-215.991 139.208 -230.99 144.409q-50.3984 40.8018 -40.1992 74.8018l2.40039 8q4.7998 16 30.5986 22.7988q22.7988 -15.2002 29.999 -24.8008
q164.394 -100.007 233.391 -146.01z" />
    <glyph glyph-name="lslash" unicode="&#x142;" horiz-adv-x="575" 
d="M190 1456h4q22 0 41 -31q0 -45 4 -45l-8 16q28 -440 28 -739q12 -97 12 -269v-328h191q23 0 37 -28v-16q0 -36 -93 -36h-184q-21 0 -41 31v29q0 48 2 48l-2 27v293q-16 526 -32 875l-12 135q12 38 53 38zM218.232 707.188q251.99 -192.011 330.587 -244.414
l9.59961 -6.40039q13.7988 -9.2002 22.1992 -42.8008v-21l-13.7998 -21.7998q-133.795 93.2061 -349.786 257.215q-214.791 139.208 -228.591 144.409q-52.1973 40.8018 -52.1973 74.8018v8q0 16 19.7988 22.7998q22.7988 -15.2012 31.1992 -24.8018
q161.993 -100.007 230.99 -146.009z" />
    <glyph glyph-name="Nacute" unicode="&#x143;" horiz-adv-x="698" 
d="M212 1401q42 0 206 -562q23 -128 188 -631h-33v14q-23 486 -23 546q0 18 5 122q-1 11 -1 48q8 79 8 125v285q5 42 54 42l42 -22q-12 -237 -12 -351v-113q0 -348 22 -909l-40 -20q-50 0 -315 902l-105 358l37 -60l3 58q7 -83 7 -132l1 -34q-8 -222 -8 -311q0 -447 36 -758
h-50q-47 0 -47 42q-23 349 -23 625v694q7 42 48 42zM491 1618h5q52 0 52 -47q0 -25 -110 -72q-84 -43 -105 -56q-11 -6 -24 -6h-7q-47 6 -47 40v2q0 33 158 109q58 30 78 30z" />
    <glyph glyph-name="nacute" unicode="&#x144;" horiz-adv-x="698" 
d="M212 1401q42 0 206 -562q23 -128 188 -631h-33v14q-23 486 -23 546q0 18 5 122q-1 11 -1 48q8 79 8 125v285q5 42 54 42l42 -22q-12 -237 -12 -351v-113q0 -348 22 -909l-40 -20q-50 0 -315 902l-105 358l37 -60l3 58q7 -83 7 -132l1 -34q-8 -222 -8 -311q0 -447 36 -758
h-50q-47 0 -47 42q-23 349 -23 625v694q7 42 48 42zM477 1598h5q52 0 52 -47q0 -25 -110 -72q-84 -43 -105 -56q-11 -6 -24 -6h-7q-47 6 -47 40v2q0 33 158 109q58 30 78 30z" />
    <glyph glyph-name="Sacute" unicode="&#x15a;" horiz-adv-x="575" 
d="M385 1371l23 -29v-13q0 -14 -36 -39h-49q-89 0 -120 -65q-31 -84 -31 -188q0 -63 55 -208q18 -36 212 -212q105 -150 105 -295q0 -114 -49 -223q-26 -59 -132 -98q-40 -21 -68 -21q-38 0 -53 32v14q0 29 62 35q114 43 114 89q36 72 36 183q0 145 -130 283
q-108 82 -162 159q-39 42 -76 215q0 21 -4 53q0 133 50 237q63 91 253 91zM443 1645h5q52 0 52 -47q0 -25 -110 -72q-84 -43 -105 -56q-11 -6 -24 -6h-7q-47 6 -47 40v2q0 33 158 109q58 30 78 30z" />
    <glyph glyph-name="sacute" unicode="&#x15b;" horiz-adv-x="575" 
d="M385 1371l23 -29v-13q0 -14 -36 -39h-49q-89 0 -120 -65q-31 -84 -31 -188q0 -63 55 -208q18 -36 212 -212q105 -150 105 -295q0 -114 -49 -223q-26 -59 -132 -98q-40 -21 -68 -21q-38 0 -53 32v14q0 29 62 35q114 43 114 89q36 72 36 183q0 145 -130 283
q-108 82 -162 159q-39 42 -76 215q0 21 -4 53q0 133 50 237q63 91 253 91zM402 1638h5q52 0 52 -47q0 -25 -110 -72q-84 -43 -105 -56q-11 -6 -24 -6h-7q-47 6 -47 40v2q0 33 158 109q58 30 78 30z" />
    <glyph glyph-name="Zdotaccent" unicode="&#x17b;" horiz-adv-x="725" 
d="M190 1228h41q0 -16 233 -24q95 -11 95 -56v-7q-89 -243 -213 -730q-87 -236 -87 -344q12 -3 83 -3q39 0 177 4q52 -6 52 8l-24 -12h15q21 0 41 -31v-17q0 -21 -48 -37q-38 9 -65 9q-57 0 -185 -4q-68 8 -126 8q-18 29 -18 40q0 101 93 393q24 68 132 484q48 134 70 213
q-24 5 -271 19q-28 30 -28 51q0 16 33 36zM354 1559h59q49 -20 49 -73v-16q0 -21 -47 -50h-47q-26 0 -55 45v51q0 22 41 43z" />
    <glyph glyph-name="zdotaccent" unicode="&#x17c;" horiz-adv-x="725" 
d="M190 1228h41q0 -16 233 -24q95 -11 95 -56v-7q-89 -243 -213 -730q-87 -236 -87 -344q12 -3 83 -3q39 0 177 4q52 -6 52 8l-24 -12h15q21 0 41 -31v-17q0 -21 -48 -37q-38 9 -65 9q-57 0 -185 -4q-68 8 -126 8q-18 29 -18 40q0 101 93 393q24 68 132 484q48 134 70 213
q-24 5 -271 19q-28 30 -28 51q0 16 33 36zM332 1556h59q49 -20 49 -73v-16q0 -21 -47 -50h-47q-26 0 -55 45v51q0 22 41 43z" />
    <glyph glyph-name="Zacute" unicode="&#x179;" horiz-adv-x="725" 
d="M190 1228h41q0 -16 233 -24q95 -11 95 -56v-7q-89 -243 -213 -730q-87 -236 -87 -344q12 -3 83 -3q39 0 177 4q52 -6 52 8l-24 -12h15q21 0 41 -31v-17q0 -21 -48 -37q-38 9 -65 9q-57 0 -185 -4q-68 8 -126 8q-18 29 -18 40q0 101 93 393q24 68 132 484q48 134 70 213
q-24 5 -271 19q-28 30 -28 51q0 16 33 36zM510 1645h5q52 0 52 -47q0 -25 -110 -72q-84 -43 -105 -56q-11 -6 -24 -6h-7q-47 6 -47 40v2q0 33 158 109q58 30 78 30z" />
    <glyph glyph-name="zacute" unicode="&#x17a;" horiz-adv-x="725" 
d="M190 1228h41q0 -16 233 -24q95 -11 95 -56v-7q-89 -243 -213 -730q-87 -236 -87 -344q12 -3 83 -3q39 0 177 4q52 -6 52 8l-24 -12h15q21 0 41 -31v-17q0 -21 -48 -37q-38 9 -65 9q-57 0 -185 -4q-68 8 -126 8q-18 29 -18 40q0 101 93 393q24 68 132 484q48 134 70 213
q-24 5 -271 19q-28 30 -28 51q0 16 33 36zM496 1577h5q52 0 52 -47q0 -25 -110 -72q-84 -43 -105 -56q-11 -6 -24 -6h-7q-47 6 -47 40v2q0 33 158 109q58 30 78 30z" />
  </font>
</defs>
</svg>
